<svg width="595" height="593" viewBox="0 0 595 593" fill="none" xmlns="http://www.w3.org/2000/svg">
<path d="M594.359 69.1262H272.049V0H594.359V69.1262Z" fill="white"/>
<path d="M313.813 52.1231C323.478 52.1231 331.314 44.2612 331.314 34.563C331.314 24.8649 323.478 17.0029 313.813 17.0029C304.148 17.0029 296.313 24.8649 296.313 34.563C296.313 44.2612 304.148 52.1231 313.813 52.1231Z" fill="#7134EB"/>
<path d="M354.23 22.8564C353.457 22.8564 352.715 23.1648 352.168 23.7137C351.621 24.2625 351.314 25.0069 351.314 25.7831C351.314 26.5593 351.621 27.3038 352.168 27.8526C352.715 28.4015 353.457 28.7098 354.23 28.7098H567.184C567.957 28.708 568.697 28.3988 569.242 27.8502C569.788 27.3015 570.094 26.5581 570.094 25.7831C570.094 25.0081 569.788 24.2648 569.242 23.7161C568.697 23.1674 567.957 22.8583 567.184 22.8564H354.23Z" fill="#7134EB"/>
<path d="M354.231 40.4165C353.457 40.4149 352.714 40.7217 352.166 41.2694C351.618 41.8171 351.309 42.5608 351.308 43.337C351.306 44.1132 351.612 44.8583 352.158 45.4083C352.703 45.9583 353.445 46.2682 354.218 46.2699H488.85C489.233 46.2705 489.613 46.1953 489.967 46.0485C490.322 45.9017 490.644 45.6862 490.915 45.4144C491.187 45.1426 491.402 44.8197 491.549 44.4643C491.696 44.1089 491.771 43.7279 491.771 43.3432C491.771 42.9584 491.696 42.5775 491.549 42.2221C491.402 41.8667 491.187 41.5438 490.915 41.272C490.644 41.0001 490.322 40.7847 489.967 40.6379C489.613 40.4911 489.233 40.4159 488.85 40.4165H354.231Z" fill="#7134EB"/>
<path d="M594.359 69.1262H272.049V0H594.359V69.1262ZM276.97 64.1886H589.438V4.93759H276.97V64.1886Z" fill="#CCCCCC"/>
<path d="M594.359 155.534H272.049V86.4077H594.359V155.534Z" fill="white"/>
<path d="M313.813 138.531C323.478 138.531 331.314 130.669 331.314 120.971C331.314 111.273 323.478 103.411 313.813 103.411C304.148 103.411 296.313 111.273 296.313 120.971C296.313 130.669 304.148 138.531 313.813 138.531Z" fill="#E6E6E6"/>
<path d="M354.23 109.264C353.457 109.264 352.715 109.572 352.168 110.121C351.621 110.67 351.314 111.415 351.314 112.191C351.314 112.967 351.621 113.711 352.168 114.26C352.715 114.809 353.457 115.118 354.23 115.118H567.184C567.957 115.116 568.697 114.807 569.242 114.258C569.788 113.709 570.094 112.966 570.094 112.191C570.094 111.416 569.788 110.672 569.242 110.124C568.697 109.575 567.957 109.266 567.184 109.264H354.23Z" fill="#7134EB"/>
<path d="M354.231 126.824C353.457 126.823 352.714 127.129 352.166 127.677C351.618 128.225 351.309 128.969 351.308 129.745C351.306 130.521 351.612 131.266 352.158 131.816C352.703 132.366 353.445 132.676 354.218 132.678H488.85C489.233 132.678 489.613 132.603 489.967 132.456C490.322 132.309 490.644 132.094 490.915 131.822C491.187 131.55 491.402 131.227 491.549 130.872C491.696 130.517 491.771 130.136 491.771 129.751C491.771 129.366 491.696 128.985 491.549 128.63C491.402 128.274 491.187 127.952 490.915 127.68C490.644 127.408 490.322 127.192 489.967 127.046C489.613 126.899 489.233 126.824 488.85 126.824H354.231Z" fill="#7134EB"/>
<path d="M594.359 155.534H272.049V86.4077H594.359V155.534ZM276.97 150.596H589.438V91.3453H276.97V150.596Z" fill="#CCCCCC"/>
<path d="M594.359 241.942H272.049V172.815H594.359V241.942Z" fill="white"/>
<path d="M313.813 224.939C323.478 224.939 331.314 217.077 331.314 207.378C331.314 197.68 323.478 189.818 313.813 189.818C304.148 189.818 296.313 197.68 296.313 207.378C296.313 217.077 304.148 224.939 313.813 224.939Z" fill="#E6E6E6"/>
<path d="M354.23 195.672C353.457 195.672 352.715 195.98 352.168 196.529C351.621 197.078 351.314 197.822 351.314 198.599C351.314 199.375 351.621 200.119 352.168 200.668C352.715 201.217 353.457 201.525 354.23 201.525H567.184C567.956 201.523 568.697 201.214 569.242 200.666C569.788 200.117 570.094 199.374 570.094 198.599C570.094 197.824 569.788 197.08 569.242 196.532C568.697 195.983 567.956 195.674 567.184 195.672H354.23Z" fill="#E6E6E6"/>
<path d="M354.23 213.231C353.457 213.23 352.714 213.537 352.166 214.084C351.618 214.632 351.309 215.376 351.308 216.152C351.306 216.928 351.612 217.673 352.158 218.223C352.703 218.773 353.445 219.083 354.218 219.085H488.85C489.233 219.085 489.613 219.01 489.967 218.863C490.322 218.717 490.644 218.501 490.915 218.229C491.187 217.958 491.402 217.635 491.549 217.279C491.696 216.924 491.771 216.543 491.771 216.158C491.771 215.773 491.696 215.392 491.549 215.037C491.402 214.682 491.187 214.359 490.915 214.087C490.644 213.815 490.322 213.6 489.967 213.453C489.613 213.306 489.233 213.231 488.85 213.231H354.23Z" fill="#E6E6E6"/>
<path d="M594.359 241.942H272.049V172.815H594.359V241.942ZM276.97 237.004H589.438V177.753H276.97V237.004Z" fill="#E6E6E6"/>
<path d="M594.31 333.591H272V264.465H594.31V333.591Z" fill="white"/>
<path d="M313.764 316.588C323.43 316.588 331.265 308.726 331.265 299.028C331.265 289.33 323.43 281.468 313.764 281.468C304.099 281.468 296.264 289.33 296.264 299.028C296.264 308.726 304.099 316.588 313.764 316.588Z" fill="#E6E6E6"/>
<path d="M354.182 287.321C353.408 287.321 352.666 287.63 352.119 288.178C351.572 288.727 351.265 289.472 351.265 290.248C351.265 291.024 351.572 291.769 352.119 292.317C352.666 292.866 353.408 293.175 354.182 293.175H567.135C567.908 293.173 568.648 292.864 569.193 292.315C569.739 291.766 570.045 291.023 570.045 290.248C570.045 289.473 569.739 288.73 569.193 288.181C568.648 287.632 567.908 287.323 567.135 287.321H354.182Z" fill="#E6E6E6"/>
<path d="M354.182 304.881C353.408 304.879 352.666 305.186 352.117 305.734C351.569 306.281 351.26 307.025 351.259 307.801C351.257 308.578 351.563 309.323 352.109 309.873C352.655 310.423 353.396 310.733 354.169 310.734H488.801C489.184 310.735 489.564 310.66 489.919 310.513C490.273 310.366 490.595 310.151 490.866 309.879C491.138 309.607 491.353 309.284 491.5 308.929C491.647 308.573 491.722 308.192 491.722 307.808C491.722 307.423 491.647 307.042 491.5 306.686C491.353 306.331 491.138 306.008 490.866 305.736C490.595 305.465 490.273 305.249 489.919 305.102C489.564 304.955 489.184 304.88 488.801 304.881H354.182Z" fill="#E6E6E6"/>
<path d="M594.31 333.591H272V264.465H594.31V333.591ZM276.921 328.653H589.389V269.402H276.921V328.653Z" fill="#E6E6E6"/>
<path d="M594.31 421.591H272V352.465H594.31V421.591Z" fill="white"/>
<path d="M313.764 404.588C323.43 404.588 331.265 396.726 331.265 387.028C331.265 377.33 323.43 369.468 313.764 369.468C304.099 369.468 296.264 377.33 296.264 387.028C296.264 396.726 304.099 404.588 313.764 404.588Z" fill="#E6E6E6"/>
<path d="M354.182 375.321C353.408 375.321 352.666 375.63 352.119 376.178C351.572 376.727 351.265 377.472 351.265 378.248C351.265 379.024 351.572 379.769 352.119 380.317C352.666 380.866 353.408 381.175 354.182 381.175H567.135C567.908 381.173 568.648 380.864 569.193 380.315C569.739 379.766 570.045 379.023 570.045 378.248C570.045 377.473 569.739 376.73 569.193 376.181C568.648 375.632 567.908 375.323 567.135 375.321H354.182Z" fill="#E6E6E6"/>
<path d="M354.182 392.881C353.408 392.879 352.666 393.186 352.117 393.734C351.569 394.281 351.26 395.025 351.259 395.801C351.257 396.578 351.563 397.323 352.109 397.873C352.655 398.423 353.396 398.733 354.169 398.734H488.801C489.184 398.735 489.564 398.66 489.919 398.513C490.273 398.366 490.595 398.151 490.866 397.879C491.138 397.607 491.353 397.284 491.5 396.929C491.647 396.573 491.722 396.192 491.722 395.808C491.722 395.423 491.647 395.042 491.5 394.686C491.353 394.331 491.138 394.008 490.866 393.736C490.595 393.465 490.273 393.249 489.919 393.102C489.564 392.955 489.184 392.88 488.801 392.881H354.182Z" fill="#E6E6E6"/>
<path d="M594.31 421.591H272V352.465H594.31V421.591ZM276.921 416.653H589.389V357.402H276.921V416.653Z" fill="#E6E6E6"/>
<path d="M313.5 138.585C323.165 138.585 331.001 130.723 331.001 121.025C331.001 111.327 323.165 103.465 313.5 103.465C303.835 103.465 296 111.327 296 121.025C296 130.723 303.835 138.585 313.5 138.585Z" fill="#7134EB"/>
<path d="M125.867 428.176C125.132 427.228 124.613 426.131 124.347 424.96C124.08 423.79 124.073 422.575 124.325 421.401C124.577 420.228 125.083 419.124 125.806 418.168C126.53 417.211 127.453 416.426 128.512 415.866L126.803 397.178L137.867 393.366L139.912 419.791C140.73 421.638 140.846 423.722 140.235 425.649C139.625 427.575 138.332 429.21 136.601 430.243C134.869 431.277 132.821 431.637 130.842 431.256C128.864 430.875 127.094 429.779 125.867 428.176V428.176Z" fill="#F8DFC4"/>
<path d="M137.745 320.917C137.745 320.917 145.338 304.928 152.085 310.553C158.832 316.177 142.835 363.454 142.835 363.454L140.402 409.35L127.579 408.064L123.954 363.349L137.745 320.917Z" fill="#63935C"/>
<path d="M35.8972 557.473L45.4156 565.204L79.6649 532.044L65.617 520.633L35.8972 557.473Z" fill="#F8DFC4"/>
<path d="M35.9846 552.382L54.7303 567.609L54.7311 567.609C57.8991 570.183 59.9186 573.914 60.3453 577.982C60.772 582.049 59.5709 586.12 57.0064 589.3L56.6921 589.689L26 564.759L35.9846 552.382Z" fill="#2F2E41"/>
<path d="M168.185 578.935H180.431L186.257 531.537L168.182 531.537L168.185 578.935Z" fill="#F8DFC4"/>
<path d="M165.06 574.923L189.178 574.922H189.179C193.255 574.923 197.164 576.547 200.047 579.44C202.929 582.332 204.549 586.254 204.549 590.344V590.846L165.061 590.847L165.06 574.923Z" fill="#2F2E41"/>
<path d="M189.673 356.729C189.673 356.729 212.648 384.795 207.654 412.86C202.659 440.925 198.664 461.974 198.664 461.974L190.672 525.12C190.672 525.12 193.669 542.317 189.673 546.749C189.673 546.749 195.667 557.194 184.679 561.204C173.691 565.213 167.762 559.819 167.762 559.819C167.762 559.819 159.706 548.173 164.701 545.166L166.805 421.243L86.7857 526.122C86.7857 526.122 85.3149 538.88 75.0623 539.016L62.8119 548.173L48.8272 540.155L55.8196 531.134C55.8196 531.134 51.8239 521.111 60.8141 519.106L112.757 450.948L125.743 415.867C125.743 415.867 132.736 388.804 151.715 377.778V366.046L189.673 356.729Z" fill="#2F2E41"/>
<path d="M150.216 308.117C153.241 304.53 157.474 302.185 162.111 301.528C166.747 300.871 171.462 301.949 175.358 304.555L176.188 305.11C185.055 315.185 191.014 327.497 193.424 340.719L197.165 361.24L150.216 371.445L139.21 333.356C137.813 328.522 138.149 323.349 140.16 318.738C142.171 314.126 145.73 310.368 150.216 308.117V308.117Z" fill="#63935C"/>
<path d="M227.35 432.539C226.049 432.112 224.856 431.404 223.857 430.464C222.858 429.525 222.076 428.377 221.566 427.102C221.057 425.826 220.832 424.454 220.909 423.083C220.985 421.711 221.36 420.372 222.007 419.161L208.464 402.53L216.529 391.806L235.326 415.563C237.281 416.789 238.72 418.692 239.37 420.912C240.02 423.131 239.836 425.513 238.853 427.606C237.87 429.698 236.156 431.356 234.036 432.265C231.916 433.175 229.537 433.272 227.35 432.539H227.35Z" fill="#F8DFC4"/>
<path d="M170.195 323.151C170.195 323.151 167.198 303.105 177.187 304.107C187.176 305.109 202.16 360.237 202.16 360.237L229.13 405.342L216.144 412.358L184.179 372.265L170.195 323.151Z" fill="#63935C"/>
<path d="M188.487 293.845H140.919C139.941 293.844 139.003 293.453 138.311 292.759C137.619 292.065 137.23 291.123 137.229 290.141V269.568C137.229 262.257 140.123 255.245 145.276 250.075C150.428 244.904 157.416 242 164.703 242C171.99 242 178.978 244.904 184.13 250.075C189.283 255.245 192.177 262.257 192.177 269.568V290.141C192.176 291.123 191.787 292.065 191.095 292.759C190.403 293.453 189.465 293.844 188.487 293.845Z" fill="#2F2E41"/>
<path d="M170.349 293.365C181.474 293.365 190.492 284.316 190.492 273.153C190.492 261.991 181.474 252.941 170.349 252.941C159.224 252.941 150.206 261.991 150.206 273.153C150.206 284.316 159.224 293.365 170.349 293.365Z" fill="#F8DFC4"/>
<path d="M198.677 271.625H173.328L173.068 267.435L171.768 271.625H167.864L167.349 263.321L164.773 271.625H157.221V271.214C157.221 259.189 165.718 249.406 176.162 249.406H179.736C190.18 249.406 198.677 259.189 198.677 271.214V271.625Z" fill="#2F2E41"/>
<path d="M174.377 297.685C174.067 297.685 173.758 297.661 173.451 297.613L143.278 292.95V261.415C143.278 258.194 144.554 255.105 146.824 252.827C149.094 250.549 152.173 249.269 155.383 249.269H176.493L175.671 250.109C164.23 261.797 172.849 280.749 179.005 291.006C179.457 291.743 179.661 292.607 179.588 293.469C179.514 294.331 179.166 295.147 178.596 295.797C178.072 296.4 177.423 296.882 176.694 297.209C175.966 297.535 175.175 297.697 174.377 297.685Z" fill="#2F2E41"/>
<path d="M250.793 459.165C262.768 459.165 272.474 449.425 272.474 437.41C272.474 425.395 262.768 415.655 250.793 415.655C238.819 415.655 229.112 425.395 229.112 437.41C229.112 449.425 238.819 459.165 250.793 459.165Z" fill="#7134EB"/>
<path d="M248.727 446.593L242.238 438.222L246.011 435.276L249.084 439.24L259.464 428.245L262.936 431.545L248.727 446.593Z" fill="white"/>
<path d="M204.465 593H0.535248C0.393291 593 0.257149 592.895 0.15677 592.707C0.0563916 592.52 0 592.265 0 592C0 591.735 0.0563916 591.48 0.15677 591.293C0.257149 591.105 0.393291 591 0.535248 591H204.465C204.607 591 204.743 591.105 204.843 591.293C204.944 591.48 205 591.735 205 592C205 592.265 204.944 592.52 204.843 592.707C204.743 592.895 204.607 593 204.465 593Z" fill="black"/>
<path d="M311.33 41L306 34.1559L309.099 31.7481L311.623 34.9888L320.149 26L323 28.6978L311.33 41Z" fill="white"/>
<path d="M311.33 129L306 122.156L309.099 119.748L311.623 122.989L320.149 114L323 116.698L311.33 129Z" fill="white"/>
</svg>
