<svg width="543" height="610" viewBox="0 0 543 610" fill="none" xmlns="http://www.w3.org/2000/svg">
<path d="M542.359 69.1262H220.049V0H542.359V69.1262Z" fill="white"/>
<path d="M261.813 52.1231C271.478 52.1231 279.314 44.2612 279.314 34.563C279.314 24.8649 271.478 17.0029 261.813 17.0029C252.148 17.0029 244.313 24.8649 244.313 34.563C244.313 44.2612 252.148 52.1231 261.813 52.1231Z" fill="#F1B104"/>
<path d="M302.23 22.8564C301.457 22.8564 300.715 23.1648 300.168 23.7137C299.621 24.2625 299.314 25.0069 299.314 25.7831C299.314 26.5593 299.621 27.3038 300.168 27.8526C300.715 28.4015 301.457 28.7098 302.23 28.7098H515.184C515.956 28.708 516.697 28.3988 517.242 27.8502C517.788 27.3015 518.094 26.5581 518.094 25.7831C518.094 25.0081 517.788 24.2648 517.242 23.7161C516.697 23.1674 515.956 22.8583 515.184 22.8564H302.23Z" fill="#F1B104"/>
<path d="M302.23 40.4165C301.457 40.4149 300.714 40.7217 300.166 41.2694C299.618 41.8171 299.309 42.5608 299.308 43.337C299.306 44.1132 299.612 44.8583 300.158 45.4083C300.703 45.9583 301.445 46.2682 302.218 46.2699H436.85C437.233 46.2705 437.613 46.1953 437.967 46.0485C438.322 45.9017 438.644 45.6862 438.915 45.4144C439.187 45.1426 439.402 44.8197 439.549 44.4643C439.696 44.1089 439.771 43.7279 439.771 43.3432C439.771 42.9584 439.696 42.5775 439.549 42.2221C439.402 41.8667 439.187 41.5438 438.915 41.272C438.644 41.0001 438.322 40.7847 437.967 40.6379C437.613 40.4911 437.233 40.4159 436.85 40.4165H302.23Z" fill="#F1B104"/>
<path d="M542.359 69.1262H220.049V0H542.359V69.1262ZM224.97 64.1886H537.438V4.93759H224.97V64.1886Z" fill="#CCCCCC"/>
<path d="M542.359 155.534H220.049V86.4077H542.359V155.534Z" fill="white"/>
<path d="M261.813 138.531C271.478 138.531 279.314 130.669 279.314 120.971C279.314 111.273 271.478 103.411 261.813 103.411C252.148 103.411 244.313 111.273 244.313 120.971C244.313 130.669 252.148 138.531 261.813 138.531Z" fill="#E6E6E6"/>
<path d="M302.23 109.264C301.457 109.264 300.715 109.572 300.168 110.121C299.621 110.67 299.314 111.415 299.314 112.191C299.314 112.967 299.621 113.711 300.168 114.26C300.715 114.809 301.457 115.118 302.23 115.118H515.184C515.956 115.116 516.697 114.807 517.242 114.258C517.788 113.709 518.094 112.966 518.094 112.191C518.094 111.416 517.788 110.672 517.242 110.124C516.697 109.575 515.956 109.266 515.184 109.264H302.23Z" fill="#F1B104"/>
<path d="M302.23 126.824C301.457 126.823 300.714 127.129 300.166 127.677C299.618 128.225 299.309 128.969 299.308 129.745C299.306 130.521 299.612 131.266 300.158 131.816C300.703 132.366 301.445 132.676 302.218 132.678H436.85C437.233 132.678 437.613 132.603 437.967 132.456C438.322 132.309 438.644 132.094 438.915 131.822C439.187 131.55 439.402 131.227 439.549 130.872C439.696 130.517 439.771 130.136 439.771 129.751C439.771 129.366 439.696 128.985 439.549 128.63C439.402 128.274 439.187 127.952 438.915 127.68C438.644 127.408 438.322 127.192 437.967 127.046C437.613 126.899 437.233 126.824 436.85 126.824H302.23Z" fill="#F1B104"/>
<path d="M542.359 155.534H220.049V86.4077H542.359V155.534ZM224.97 150.596H537.438V91.3453H224.97V150.596Z" fill="#CCCCCC"/>
<path d="M542.359 241.942H220.049V172.815H542.359V241.942Z" fill="white"/>
<path d="M261.813 224.939C271.478 224.939 279.314 217.077 279.314 207.378C279.314 197.68 271.478 189.818 261.813 189.818C252.148 189.818 244.313 197.68 244.313 207.378C244.313 217.077 252.148 224.939 261.813 224.939Z" fill="#E6E6E6"/>
<path d="M302.23 195.672C301.457 195.672 300.715 195.98 300.168 196.529C299.621 197.078 299.314 197.822 299.314 198.599C299.314 199.375 299.621 200.119 300.168 200.668C300.715 201.217 301.457 201.525 302.23 201.525H515.184C515.956 201.523 516.697 201.214 517.242 200.666C517.788 200.117 518.094 199.374 518.094 198.599C518.094 197.824 517.788 197.08 517.242 196.532C516.697 195.983 515.956 195.674 515.184 195.672H302.23Z" fill="#E6E6E6"/>
<path d="M302.23 213.231C301.457 213.23 300.714 213.537 300.166 214.084C299.618 214.632 299.309 215.376 299.308 216.152C299.306 216.928 299.612 217.673 300.158 218.223C300.703 218.773 301.445 219.083 302.218 219.085H436.85C437.233 219.085 437.613 219.01 437.967 218.863C438.322 218.717 438.644 218.501 438.915 218.229C439.187 217.958 439.402 217.635 439.549 217.279C439.696 216.924 439.771 216.543 439.771 216.158C439.771 215.773 439.696 215.392 439.549 215.037C439.402 214.682 439.187 214.359 438.915 214.087C438.644 213.815 438.322 213.6 437.967 213.453C437.613 213.306 437.233 213.231 436.85 213.231H302.23Z" fill="#E6E6E6"/>
<path d="M542.359 241.942H220.049V172.815H542.359V241.942ZM224.97 237.004H537.438V177.753H224.97V237.004Z" fill="#E6E6E6"/>
<path d="M542.31 333.591H220V264.465H542.31V333.591Z" fill="white"/>
<path d="M261.764 316.588C271.43 316.588 279.265 308.726 279.265 299.028C279.265 289.33 271.43 281.468 261.764 281.468C252.099 281.468 244.264 289.33 244.264 299.028C244.264 308.726 252.099 316.588 261.764 316.588Z" fill="#E6E6E6"/>
<path d="M302.182 287.321C301.408 287.321 300.666 287.63 300.119 288.178C299.572 288.727 299.265 289.472 299.265 290.248C299.265 291.024 299.572 291.769 300.119 292.317C300.666 292.866 301.408 293.175 302.182 293.175H515.135C515.908 293.173 516.648 292.864 517.193 292.315C517.739 291.766 518.045 291.023 518.045 290.248C518.045 289.473 517.739 288.73 517.193 288.181C516.648 287.632 515.908 287.323 515.135 287.321H302.182Z" fill="#E6E6E6"/>
<path d="M302.182 304.881C301.408 304.879 300.666 305.186 300.117 305.734C299.569 306.281 299.26 307.025 299.259 307.801C299.257 308.578 299.563 309.323 300.109 309.873C300.655 310.423 301.396 310.733 302.169 310.734H436.801C437.184 310.735 437.564 310.66 437.919 310.513C438.273 310.366 438.595 310.151 438.866 309.879C439.138 309.607 439.353 309.284 439.5 308.929C439.647 308.573 439.722 308.192 439.722 307.808C439.722 307.423 439.647 307.042 439.5 306.686C439.353 306.331 439.138 306.008 438.866 305.736C438.595 305.465 438.273 305.249 437.919 305.102C437.564 304.955 437.184 304.88 436.801 304.881H302.182Z" fill="#E6E6E6"/>
<path d="M542.31 333.591H220V264.465H542.31V333.591ZM224.921 328.653H537.389V269.402H224.921V328.653Z" fill="#E6E6E6"/>
<path d="M542.31 421.591H220V352.465H542.31V421.591Z" fill="white"/>
<path d="M261.764 404.588C271.43 404.588 279.265 396.726 279.265 387.028C279.265 377.33 271.43 369.468 261.764 369.468C252.099 369.468 244.264 377.33 244.264 387.028C244.264 396.726 252.099 404.588 261.764 404.588Z" fill="#E6E6E6"/>
<path d="M302.182 375.321C301.408 375.321 300.666 375.63 300.119 376.178C299.572 376.727 299.265 377.472 299.265 378.248C299.265 379.024 299.572 379.769 300.119 380.317C300.666 380.866 301.408 381.175 302.182 381.175H515.135C515.908 381.173 516.648 380.864 517.193 380.315C517.739 379.766 518.045 379.023 518.045 378.248C518.045 377.473 517.739 376.73 517.193 376.181C516.648 375.632 515.908 375.323 515.135 375.321H302.182Z" fill="#E6E6E6"/>
<path d="M302.182 392.881C301.408 392.879 300.666 393.186 300.117 393.734C299.569 394.281 299.26 395.025 299.259 395.801C299.257 396.578 299.563 397.323 300.109 397.873C300.655 398.423 301.396 398.733 302.169 398.734H436.801C437.184 398.735 437.564 398.66 437.919 398.513C438.273 398.366 438.595 398.151 438.866 397.879C439.138 397.607 439.353 397.284 439.5 396.929C439.647 396.573 439.722 396.192 439.722 395.808C439.722 395.423 439.647 395.042 439.5 394.686C439.353 394.331 439.138 394.008 438.866 393.736C438.595 393.465 438.273 393.249 437.919 393.102C437.564 392.955 437.184 392.88 436.801 392.881H302.182Z" fill="#E6E6E6"/>
<path d="M542.31 421.591H220V352.465H542.31V421.591ZM224.921 416.653H537.389V357.402H224.921V416.653Z" fill="#E6E6E6"/>
<path d="M261.5 138.585C271.165 138.585 279.001 130.723 279.001 121.025C279.001 111.327 271.165 103.465 261.5 103.465C251.835 103.465 244 111.327 244 121.025C244 130.723 251.835 138.585 261.5 138.585Z" fill="#F1B104"/>
<path d="M259.33 41L254 34.1559L257.099 31.7481L259.623 34.9888L268.149 26L271 28.6978L259.33 41Z" fill="white"/>
<path d="M259.33 129L254 122.156L257.099 119.748L259.623 122.989L268.149 114L271 116.698L259.33 129Z" fill="white"/>
<path d="M295.022 452.015V453.836C295.022 454.476 294.899 455.109 294.659 455.7C294.42 456.29 294.069 456.827 293.627 457.279C293.185 457.731 292.66 458.089 292.082 458.333C291.504 458.578 290.885 458.703 290.26 458.702H160.82C154.022 458.703 147.426 456.334 142.12 451.985C136.815 447.637 133.117 441.57 131.636 434.784L108.473 328.96C107.923 326.444 107.932 323.833 108.501 321.322C109.07 318.81 110.184 316.461 111.76 314.448C113.336 312.436 115.334 310.812 117.607 309.695C119.879 308.579 122.368 307.999 124.889 307.999H169.768C174.88 307.997 179.84 309.776 183.829 313.044C187.819 316.313 190.6 320.874 191.714 325.976L212.884 422.714C214.401 429.647 218.182 435.844 223.604 440.285C229.026 444.726 235.766 447.145 242.713 447.144H290.26C291.523 447.144 292.734 447.657 293.627 448.571C294.52 449.484 295.022 450.723 295.022 452.015Z" fill="#D6EAF2"/>
<path d="M155.799 459.262H211.683C217.319 459.269 222.72 461.565 226.701 465.644C230.681 469.724 232.914 475.254 232.908 481.017V555.306C232.912 558.16 232.365 560.986 231.3 563.624C230.235 566.262 228.673 568.659 226.702 570.68C224.731 572.7 222.39 574.303 219.813 575.398C217.236 576.493 214.474 577.058 211.683 577.061H145.342" stroke="#639AD6" stroke-width="3" stroke-miterlimit="10"/>
<path d="M184.123 459.262H258.603C264.234 459.274 269.631 461.572 273.607 465.651C277.583 469.73 279.813 475.257 279.806 481.017V555.306C279.814 561.066 277.585 566.594 273.609 570.673C269.632 574.753 264.235 577.05 258.603 577.061H205.373" stroke="#639AD6" stroke-width="3" stroke-miterlimit="10"/>
<path d="M232.908 535.494H279.823" stroke="#639AD6" stroke-width="3" stroke-miterlimit="10"/>
<path d="M244.367 272.504C244.367 272.504 266.033 273.983 276.596 294.263C287.16 314.543 300.344 342.214 300.344 342.214C300.344 342.214 337.561 341.147 365.096 358.725V371.363H285.943C276.109 371.363 244.384 332.963 242.531 308.085C240.677 283.208 244.367 272.504 244.367 272.504Z" fill="#F9C543"/>
<path d="M358.913 371.254C357.322 370.916 358.489 365.699 359.417 362.481C359.935 360.707 361.177 359.805 362.81 359.037C366.092 357.51 371.766 355.784 374.972 356.521C379.671 357.606 382.69 360.642 385.629 364.241C386.477 365.274 390.604 370.222 390.604 371.545L358.913 371.254Z" fill="#A57574"/>
<path d="M203.554 264.177C189.793 264.225 161.27 293.582 166.291 368.219C169.993 423.173 186.736 446.285 190.438 444.668C194.14 443.05 238.824 403.002 244.905 381.368C250.987 359.735 283.292 285.472 240.741 271.208C211.048 261.258 207.956 264.164 203.554 264.177Z" fill="#F9C543"/>
<path d="M342.565 577.416H294.089C294.038 576.657 294.021 575.937 294.034 575.247H342.62C342.675 575.97 342.656 576.697 342.565 577.416Z" fill="white"/>
<path d="M299.025 555.231C299.199 560.64 294.089 564.066 294.089 575.243H342.565C342.565 575.243 343.269 565.866 333.574 563.706C323.88 561.546 315.064 558.658 314.182 555.231H299.025Z" fill="#A1CBE2"/>
<path d="M314.525 565.337L318.948 558.636" stroke="white" stroke-width="3" stroke-miterlimit="10" stroke-linecap="round"/>
<path d="M317.977 566.148L322.137 559.994" stroke="white" stroke-width="3" stroke-miterlimit="10" stroke-linecap="round"/>
<path d="M322.493 566.421L325.856 560.809" stroke="white" stroke-width="3" stroke-miterlimit="10" stroke-linecap="round"/>
<path d="M246.894 385.38C246.894 385.38 320.882 380.648 338.863 402.294C356.843 423.94 321.938 501.083 318.414 547.954C318.414 547.954 300.709 549.758 293.521 547.954C286.333 546.149 280.074 466.018 298.186 444.021C298.186 444.021 229.325 460.22 202.481 439.788C175.638 419.356 235.724 385.774 246.894 385.38Z" fill="#242854"/>
<path d="M293.69 556.957C296.235 557.725 303.822 559.807 318.829 557.365C319.605 557.239 320.178 556.012 320.178 555.196V549.242C320.178 549.008 320.129 548.778 320.034 548.566C319.939 548.353 319.801 548.165 319.628 548.012C319.455 547.859 319.253 547.746 319.034 547.681C318.815 547.616 318.584 547.599 318.359 547.633C305.374 549.558 296.846 548.5 293.279 547.685C293.031 547.629 292.774 547.635 292.529 547.702C292.283 547.768 292.057 547.894 291.868 548.068C291.68 548.241 291.534 548.459 291.444 548.701C291.354 548.944 291.322 549.205 291.35 549.463L292.562 555.565C292.596 555.885 292.721 556.187 292.922 556.435C293.122 556.682 293.39 556.864 293.69 556.957Z" fill="#4E577D"/>
<path d="M452.111 502.359L413.656 532.54C413.113 531.864 412.621 531.196 412.18 530.55L450.482 500.481C451.093 501.042 451.639 501.672 452.111 502.359Z" fill="white"/>
<path d="M404.068 511.692C407.427 515.886 405.412 521.776 412.062 530.632L450.516 500.446C450.516 500.446 445.495 492.574 436.522 496.894C427.549 501.214 418.834 504.414 416.095 502.246L404.068 511.692Z" fill="#A1CBE2"/>
<path d="M422.477 509.58L422.002 501.769" stroke="white" stroke-width="3" stroke-miterlimit="10" stroke-linecap="round"/>
<path d="M425.399 507.676L424.924 500.685" stroke="white" stroke-width="3" stroke-miterlimit="10" stroke-linecap="round"/>
<path d="M428.321 505.776L427.846 499.596" stroke="white" stroke-width="3" stroke-miterlimit="10" stroke-linecap="round"/>
<path d="M190.175 441.952C191.282 448.055 254.252 462.853 321.234 419.586C321.234 419.586 327.137 469.614 394.823 507.472C394.823 507.472 409.729 500.966 413.779 492.232C413.779 492.232 370.524 439.415 353.519 390.918C346.381 370.556 256.563 381.216 243.417 385.38C230.271 389.544 185.239 414.742 190.175 441.952Z" fill="#242854"/>
<path d="M195.497 445.37C192.232 444.19 190.378 442.95 190.196 441.948C185.765 417.53 221.607 394.726 238.489 387.301C221.789 397.242 193.292 422.822 195.497 445.37Z" fill="#383C4D"/>
<path d="M399.73 514.871C402.21 513.891 409.14 510.391 419.593 499.11C419.854 498.828 420.009 498.46 420.028 498.072C420.047 497.684 419.931 497.302 419.699 496.994L416.154 492.271C416.015 492.086 415.839 491.933 415.638 491.824C415.436 491.714 415.214 491.65 414.987 491.636C414.759 491.622 414.531 491.659 414.318 491.743C414.106 491.827 413.913 491.956 413.754 492.123C404.598 501.739 397.613 505.863 394.31 507.455C394.081 507.565 393.882 507.73 393.728 507.934C393.573 508.139 393.469 508.378 393.423 508.633C393.377 508.887 393.391 509.148 393.463 509.396C393.536 509.644 393.664 509.87 393.839 510.057L398.016 514.476C398.232 514.707 398.51 514.867 398.815 514.938C399.12 515.008 399.438 514.985 399.73 514.871Z" fill="#6874A7"/>
<path d="M207.248 280.329C221.556 285.186 239.091 336.48 239.091 336.48C239.091 336.48 264.23 341.351 298.343 355.954C298.343 355.954 300.17 365.144 295.675 371.363C295.675 371.363 227.985 371.905 221.378 371.363C214.771 370.821 183.703 344.677 176.036 315.758C168.369 286.839 189.772 274.391 207.248 280.329Z" fill="#F9C543"/>
<path d="M303.872 333.18L318.236 369.555H320.704L305.938 332.325C305.831 332.057 305.63 331.841 305.373 331.719C305.116 331.597 304.824 331.58 304.555 331.671C304.411 331.72 304.278 331.799 304.165 331.903C304.052 332.007 303.96 332.134 303.896 332.275C303.832 332.416 303.797 332.569 303.793 332.725C303.789 332.88 303.816 333.035 303.872 333.18Z" fill="#41465A"/>
<path d="M298.186 358.686C298.186 358.686 308.189 353.278 312.892 354.349C317.595 355.42 323.231 359.753 323.821 360.967C324.41 362.182 328.519 368.058 328.519 369.381C328.519 370.704 315.225 370.223 313.355 370.223C311.485 370.223 299.191 370.422 296.816 369.919C294.441 369.416 298.186 358.686 298.186 358.686Z" fill="#A57574"/>
<path d="M313.355 370.222C315.225 370.222 328.519 370.704 328.519 369.381C328.519 368.058 324.406 362.168 323.821 360.967C323.236 359.766 317.591 355.437 312.892 354.357C312.892 354.357 318.694 362.598 313.355 370.222Z" fill="#A57574"/>
<path d="M295.675 371.363C295.675 371.363 227.985 371.905 221.378 371.363C214.771 370.821 183.703 344.677 176.036 315.758" stroke="#E59E38" stroke-width="3" stroke-miterlimit="10"/>
<path d="M207.248 280.329C221.556 285.186 239.091 336.48 239.091 336.48C239.091 336.48 255.965 339.75 280.824 348.962" stroke="#E59E38" stroke-width="3" stroke-miterlimit="10"/>
<path d="M378.984 371.463V369.294C378.985 368.699 378.867 368.11 378.636 367.564C378.405 367.017 378.067 366.525 377.642 366.118C377.217 365.712 376.715 365.399 376.166 365.199C375.618 364.999 375.036 364.917 374.455 364.957L297.058 369.893C296.666 369.922 296.299 370.102 296.032 370.397C295.764 370.691 295.616 371.078 295.616 371.48L378.984 371.463Z" fill="#A1CBE2"/>
<path d="M211.777 231.133C211.777 231.133 210.081 253.022 197.248 266.888C197.248 266.888 211.62 278.541 227.23 269.846L228.926 231.216L211.777 231.133Z" fill="#A57574"/>
<path d="M249.303 226.372C249.303 226.372 245.486 235.913 246.86 253.517C248.234 271.121 220.894 261.944 220.432 249.774C219.97 237.604 221.823 226.519 224.915 226.354C228.006 226.189 249.303 226.372 249.303 226.372Z" fill="#A57574"/>
<path d="M207.642 245.424C207.642 245.424 211.769 235.414 208.868 224.259C206.748 216.105 215.331 211.365 222.595 215.715C222.595 215.715 249.952 200.301 256.122 217.142C263.56 237.439 227.54 227.169 226.921 227.963C226.301 228.757 224.245 244.552 228.108 249.926C231.971 255.299 236.246 249.895 241.806 249.527C247.564 249.141 246.86 253.04 246.86 253.04C246.86 253.04 248.582 262.507 249.201 266.142C249.82 269.776 227.79 275.913 221.976 266.684C216.7 258.314 220.068 241.386 217.909 239.977C213.431 237.058 209.801 242.219 212.286 244.275C212.286 244.275 209.559 245.962 207.642 245.424Z" fill="#242854"/>
<path d="M254.388 229.732C245.906 234.399 228.265 228.544 226.687 227.486L254.388 229.732Z" fill="#242854"/>
<path d="M214.915 212.215C217.884 211.977 221.106 213.169 222.595 215.988L214.915 212.215Z" fill="#4E2556"/>
<path d="M236.119 241.646C236.831 241.646 237.408 240.906 237.408 239.994C237.408 239.081 236.831 238.341 236.119 238.341C235.407 238.341 234.829 239.081 234.829 239.994C234.829 240.906 235.407 241.646 236.119 241.646Z" fill="#242854"/>
<path d="M245.287 241.646C245.828 241.646 246.267 240.906 246.267 239.994C246.267 239.081 245.828 238.341 245.287 238.341C244.746 238.341 244.307 239.081 244.307 239.994C244.307 240.906 244.746 241.646 245.287 241.646Z" fill="#242854"/>
<path d="M235.589 245.281C238.355 245.281 240.597 242.809 240.597 239.76C240.597 236.711 238.355 234.239 235.589 234.239C232.823 234.239 230.58 236.711 230.58 239.76C230.58 242.809 232.823 245.281 235.589 245.281Z" stroke="white" stroke-width="3" stroke-miterlimit="10"/>
<path d="M247.242 245.281C249.577 245.281 251.47 242.809 251.47 239.76C251.47 236.711 249.577 234.239 247.242 234.239C244.907 234.239 243.014 236.711 243.014 239.76C243.014 242.809 244.907 245.281 247.242 245.281Z" stroke="white" stroke-width="3" stroke-miterlimit="10"/>
<path d="M240.597 239.521H243.01" stroke="white" stroke-width="3" stroke-miterlimit="10"/>
<path d="M230.317 239.248L216.014 239.044C215.104 239.046 214.204 239.239 213.371 239.612C212.538 239.985 211.789 240.53 211.171 241.213" stroke="white" stroke-width="3" stroke-miterlimit="10"/>
<path d="M490.061 371.758V577.425H476.533V385.341H39.8416V577.425H26.3137V371.758H490.061Z" fill="#FFF4DE"/>
<path d="M474.654 340.019H331.895C330.844 340.019 329.807 339.771 328.865 339.294C327.923 338.818 327.101 338.126 326.463 337.272C325.824 336.417 325.387 335.425 325.185 334.37C324.983 333.315 325.021 332.226 325.297 331.189L348.981 241.976C350.253 237.262 354.413 233.441 359.188 233.441H501.948C506.455 233.441 509.729 238.372 508.546 242.822L484.862 332.035C484.254 334.327 482.925 336.351 481.08 337.794C479.235 339.237 476.977 340.019 474.654 340.019Z" fill="white"/>
<path d="M474.659 340.019H335.987C334.965 340.018 333.957 339.776 333.041 339.312C332.126 338.848 331.327 338.174 330.706 337.343C330.086 336.512 329.662 335.546 329.466 334.521C329.269 333.495 329.307 332.436 329.575 331.428L352.564 244.605C353.155 242.376 354.446 240.408 356.238 239.004C358.031 237.6 360.226 236.838 362.483 236.837H501.155C502.177 236.838 503.185 237.081 504.101 237.545C505.017 238.009 505.816 238.682 506.436 239.513C507.057 240.344 507.482 241.31 507.678 242.335C507.875 243.361 507.838 244.42 507.571 245.429L484.561 332.252C483.971 334.478 482.683 336.444 480.893 337.847C479.104 339.251 476.914 340.014 474.659 340.019Z" fill="#D4D1F4"/>
<path d="M474.659 340.019H335.987C334.965 340.018 333.957 339.776 333.041 339.312C332.126 338.848 331.327 338.174 330.706 337.343C330.086 336.512 329.662 335.546 329.466 334.521C329.269 333.495 329.307 332.436 329.575 331.428L352.564 244.605C353.155 242.376 354.446 240.408 356.238 239.004C358.031 237.6 360.226 236.838 362.483 236.837H501.155C502.177 236.838 503.185 237.081 504.101 237.545C505.017 238.009 505.816 238.682 506.436 239.513C507.057 240.344 507.482 241.31 507.678 242.335C507.875 243.361 507.838 244.42 507.571 245.429L484.561 332.252C483.971 334.478 482.683 336.444 480.893 337.847C479.104 339.251 476.914 340.014 474.659 340.019Z" fill="#EBF4F7"/>
<path d="M346.496 267.508L352.564 244.605C353.155 242.376 354.446 240.408 356.238 239.004C358.031 237.6 360.226 236.838 362.483 236.837H445.576" stroke="#639AD6" stroke-width="3" stroke-linecap="round" stroke-linejoin="round"/>
<path d="M484.578 332.252C483.987 334.48 482.696 336.448 480.904 337.852C479.111 339.256 476.916 340.018 474.659 340.019H335.987C334.965 340.018 333.957 339.776 333.041 339.312C332.126 338.848 331.327 338.174 330.706 337.343C330.086 336.512 329.662 335.546 329.466 334.52C329.269 333.494 329.307 332.436 329.575 331.427L341.704 285.659" stroke="#639AD6" stroke-width="3" stroke-linecap="round" stroke-linejoin="round"/>
<path d="M443.366 363.873L429.584 314.925H397.316L410.157 360.503C411.205 364.216 408.16 367.837 403.996 367.837H395.09C394.819 367.823 394.554 367.919 394.352 368.104C394.15 368.29 394.028 368.549 394.013 368.826V370.73C394.028 371.007 394.15 371.266 394.352 371.452C394.554 371.637 394.819 371.733 395.09 371.719H436.954C441.293 371.719 444.452 367.724 443.366 363.873Z" fill="#D6EAF2"/>
<path d="M406.574 370.006H394.03V368.826C394.045 368.549 394.167 368.29 394.369 368.104C394.571 367.919 394.836 367.823 395.107 367.837H403.991C408.16 367.837 411.201 364.216 410.157 360.503L397.316 314.925H399.623L412.727 361.826C412.978 362.79 413.009 363.8 412.817 364.778C412.626 365.756 412.217 366.676 411.622 367.467C411.027 368.258 410.263 368.898 409.387 369.338C408.512 369.778 407.549 370.007 406.574 370.006Z" fill="white"/>
<path d="M397.317 314.925V340.067H404.399L397.317 314.925Z" fill="#A1CBE2"/>
<path d="M355.842 331.189H348.756L348.213 333.201H355.299L355.842 331.189Z" fill="#A1CBE2"/>
<path d="M370.49 331.189H363.946L363.408 333.201H369.947L370.49 331.189Z" fill="#A1CBE2"/>
<path d="M437.243 371.029C441.564 371.029 444.723 367.746 443.638 363.895L429.843 314.947" stroke="#639AD6" stroke-width="3" stroke-miterlimit="10"/>
<path d="M366.949 332.195H370.409C370.984 332.195 371.535 332.429 371.941 332.844C372.348 333.26 372.576 333.824 372.576 334.412V401.146C372.576 402.741 373.196 404.271 374.299 405.399C375.402 406.527 376.898 407.161 378.458 407.161C380.017 407.16 381.512 406.526 382.614 405.398C383.717 404.27 384.336 402.74 384.336 401.146V371.32C384.336 371.029 384.28 370.741 384.171 370.472C384.062 370.204 383.902 369.96 383.701 369.754C383.499 369.549 383.26 369.386 382.998 369.275C382.735 369.164 382.453 369.107 382.169 369.108H378.984" stroke="#639AD6" stroke-width="3" stroke-miterlimit="10"/>
<path d="M93.5204 345.653H76.0062C73.9007 345.653 72.1938 347.399 72.1938 349.552V367.464C72.1938 369.618 73.9007 371.363 76.0062 371.363H93.5204C95.6259 371.363 97.3328 369.618 97.3328 367.464V349.552C97.3328 347.399 95.6259 345.653 93.5204 345.653Z" fill="#F9C543"/>
<path d="M83.4784 345.653C83.4784 345.653 80.3572 321.851 103.16 315.103C103.16 315.103 93.3168 325.022 90.3187 345.653H83.4784Z" fill="#A1CBE2"/>
<path d="M87.4774 345.653C87.4774 345.653 84.7633 324.796 66.5537 323.4C66.5537 323.4 78.0036 328.305 78.1351 345.653H87.4774Z" fill="#A1CBE2"/>
<path d="M81.3157 345.653C81.3157 345.653 78.9621 328.691 86.8286 320.624C86.8286 320.624 84.8694 335.209 87.469 345.653H81.3157Z" fill="#D6EAF2"/>
<path d="M84.7634 345.653C84.7634 345.653 92.4773 341.247 91.9726 333.141C91.9726 333.141 96.3151 340.357 92.8632 345.653H84.7634Z" fill="#D6EAF2"/>
<path d="M76.6635 345.653C76.6635 345.653 74.4753 339.282 69.0769 337.317C69.0769 337.317 78.9154 337.053 81.3156 345.653H76.6635Z" fill="#D6EAF2"/>
<path d="M242.653 240.51L246.135 247.45L243.184 249.41" fill="#A57574"/>
<path d="M242.653 240.51L246.135 247.45L243.184 249.41" stroke="#4E2556" stroke-width="3" stroke-linecap="round" stroke-linejoin="round"/>
<path d="M37.174 223.93H178.534V237.166L37.1486 224.949C36.7712 224.91 36.7966 223.93 37.174 223.93Z" fill="#FFF4DE"/>
<path d="M163.288 158.462H157.343C156.137 158.462 155.159 159.462 155.159 160.695V210.506C155.159 211.74 156.137 212.74 157.343 212.74H163.288C164.495 212.74 165.472 211.74 165.472 210.506V160.695C165.472 159.462 164.495 158.462 163.288 158.462Z" fill="white" stroke="#F1B104" stroke-width="3" stroke-miterlimit="10"/>
<path d="M152.39 163.055H145.291C144.113 163.055 143.158 164.031 143.158 165.236V211.634C143.158 212.839 144.113 213.815 145.291 213.815H152.39C153.568 213.815 154.523 212.839 154.523 211.634V165.236C154.523 164.031 153.568 163.055 152.39 163.055Z" fill="#F1B104"/>
<path d="M141.169 150.729H139.252C138.154 150.729 137.263 151.64 137.263 152.763V211.782C137.263 212.905 138.154 213.816 139.252 213.816H141.169C142.267 213.816 143.158 212.905 143.158 211.782V152.763C143.158 151.64 142.267 150.729 141.169 150.729Z" fill="#D6EAF2"/>
<path d="M134.659 166.729H129.554C128.35 166.729 127.374 167.727 127.374 168.958V210.94C127.374 212.171 128.35 213.17 129.554 213.17H134.659C135.863 213.17 136.839 212.171 136.839 210.94V168.958C136.839 167.727 135.863 166.729 134.659 166.729Z" fill="white" stroke="#F1B104" stroke-width="3" stroke-miterlimit="10"/>
<path d="M109.771 213.816H101.51L122.175 157.187C122.255 156.967 122.398 156.777 122.586 156.642C122.774 156.507 122.997 156.434 123.226 156.432H129.087C129.27 156.435 129.45 156.484 129.612 156.573C129.773 156.662 129.911 156.79 130.014 156.945C130.117 157.1 130.182 157.278 130.204 157.464C130.226 157.651 130.203 157.84 130.139 158.015L109.771 213.816Z" fill="#F1B104"/>
<path d="M178.127 213.815H37.4836V223.305H178.127V213.815Z" fill="white" stroke="#F1B104" stroke-width="3" stroke-miterlimit="10"/>
<path d="M51.6986 192.777H87.1976V196.763C87.1976 201.287 85.4403 205.625 82.3125 208.824C79.1846 212.023 74.9423 213.82 70.5188 213.82H68.373C63.9496 213.82 59.7073 212.023 56.5794 208.824C53.4516 205.625 51.6943 201.287 51.6943 196.763V192.777H51.6986Z" fill="#F1B104"/>
<path d="M83.6353 192.777H57.3429C57.3429 192.777 49.6544 199.191 45.2611 193.93C42.0805 190.122 57.3004 189.949 57.3004 189.949L57.7584 189.788C57.7584 189.788 51.2277 175.771 57.398 173.433C61.6599 171.811 62.6904 183.691 62.9109 187.546C65.1542 186.588 69.5349 185.204 69.9081 188.847C69.9081 188.847 70.3958 173.845 76.5405 175.277C81.6294 176.469 74.0725 190.569 74.0725 190.569L74.6068 190.899C74.6068 190.899 88.6435 180.412 92.087 182.849C94.6908 184.692 83.6353 192.777 83.6353 192.777Z" fill="#A1CBE2"/>
<path d="M61.3672 192.777C61.3672 192.777 61.6386 179.843 66.4009 180.199C71.1632 180.555 64.5265 192.777 64.5265 192.777H61.3672Z" fill="#D6EAF2"/>
<path d="M61.3674 192.776C61.3674 192.776 56.5923 180.572 50.121 183.699C43.7981 186.735 57.3981 192.776 57.3981 192.776H61.3674Z" fill="#D6EAF2"/>
<path d="M71.1846 192.777C71.1846 192.777 75.4847 181.782 82.2698 182.827C89.0549 183.873 73.8732 192.777 73.8732 192.777H71.1846Z" fill="#D6EAF2"/>
<path d="M78.1733 192.777C78.1733 192.777 91.4722 185.928 93.864 190.057C96.2557 194.186 78.1733 192.777 78.1733 192.777Z" fill="#D6EAF2"/>
</svg>
