<svg width="469" height="465" viewBox="0 0 469 465" fill="none" xmlns="http://www.w3.org/2000/svg">
<path d="M394.43 89.1514H377.483V106.112H394.43V89.1514Z" fill="#FFF4DE"/>
<path d="M386.867 87.0618H385.046V91.3209H386.867V87.0618Z" fill="#7B688A"/>
<path d="M366.952 89.1514V123.604C366.952 125.143 366.341 126.618 365.254 127.707C364.166 128.795 362.692 129.406 361.154 129.406H331.356C332.842 129.333 334.242 128.692 335.267 127.613C336.292 126.535 336.864 125.104 336.863 123.616V89.1514H366.952Z" fill="#D6EAF2"/>
<path d="M351.897 87.0618H350.076V91.3209H351.897V87.0618Z" fill="#7B688A"/>
<path d="M342.637 97.4785H360.457" stroke="#639AD6" stroke-width="3" stroke-miterlimit="10"/>
<path d="M342.637 101.901H360.457" stroke="#639AD6" stroke-width="3" stroke-miterlimit="10"/>
<path d="M342.637 106.32H360.457" stroke="#639AD6" stroke-width="3" stroke-miterlimit="10"/>
<path d="M342.637 110.742H360.457" stroke="#639AD6" stroke-width="3" stroke-miterlimit="10"/>
<path d="M342.637 115.165H360.457" stroke="#639AD6" stroke-width="3" stroke-miterlimit="10"/>
<path d="M254.268 311.693L231.81 420.849H233.958L264.007 311.721" fill="#D6EAF2"/>
<path d="M333.91 309.117L356.811 420.849H354.731L324.71 311.674" fill="#D6EAF2"/>
<path d="M302.722 311.693L325.176 420.849H323.028L292.98 311.721" fill="#D6EAF2"/>
<path d="M358.432 258.083L344.884 298.382C343.509 302.473 340.884 306.028 337.381 308.545C333.877 311.063 329.672 312.415 325.359 312.411H248.646C244.333 312.415 240.128 311.062 236.625 308.545C233.121 306.027 230.496 302.472 229.121 298.382L217.963 265.233C217.513 263.892 217.387 262.463 217.597 261.064C217.808 259.665 218.348 258.336 219.173 257.186C219.998 256.037 221.084 255.101 222.342 254.456C223.6 253.81 224.993 253.473 226.407 253.473H234.994C236.957 253.481 238.857 252.777 240.342 251.491C241.826 250.205 242.794 248.424 243.067 246.478L248.072 210.925C248.649 206.818 250.69 203.057 253.818 200.337C256.946 197.616 260.95 196.117 265.095 196.117H334.165C336.625 196.118 339.055 196.646 341.293 197.666C343.531 198.687 345.524 200.176 347.138 202.033C348.751 203.89 349.949 206.072 350.648 208.431C351.347 210.791 351.533 213.273 351.192 215.71L346.897 246.386C346.773 247.267 346.84 248.164 347.092 249.017C347.344 249.87 347.776 250.659 348.359 251.33C348.941 252.002 349.661 252.541 350.47 252.91C351.278 253.28 352.156 253.472 353.045 253.473H355.117C355.672 253.472 356.219 253.603 356.713 253.855C357.207 254.108 357.634 254.475 357.958 254.925C358.282 255.376 358.494 255.898 358.577 256.447C358.659 256.996 358.61 257.557 358.432 258.083Z" fill="#D6EAF2"/>
<path d="M352.647 253.042H346.972C343.263 253.011 339.637 254.15 336.611 256.297C333.585 258.445 331.311 261.492 330.113 265.006L320.394 292.029C319.149 295.729 316.775 298.946 313.607 301.224C310.439 303.503 306.636 304.729 302.734 304.731H232.029" stroke="white" stroke-width="3" stroke-miterlimit="10"/>
<path d="M292.39 105.622C309.847 106.021 302.718 124.389 312.624 127.608C319.637 129.885 328.459 133.239 328.272 147.32C328.117 158.937 327.109 160.556 335.967 165.517C348.104 172.297 344.829 195.148 320.358 194.335" stroke="#41465A" stroke-width="3" stroke-miterlimit="10"/>
<path d="M265.78 118.842C266.206 117.678 269.765 102.284 292.944 104.996C310.285 107.026 303.304 126.659 311.512 129.43C317.737 131.528 327.304 134.714 326.28 148.76C325.435 160.345 324.331 161.92 332.878 167.38C344.593 174.893 339.963 197.489 315.585 195.216C291.206 192.943 254.718 193.816 253.069 189.087C251.873 185.617 241.565 165.083 256.559 156.19C261.07 153.514 269.398 150.264 268.513 145.063C266.72 134.535 261.309 131.037 265.78 118.842Z" fill="#252954"/>
<path d="M294.908 140.469C294.908 140.469 293.621 157.131 300.287 162.239L282.141 161.912C282.141 161.912 282.568 143.46 282.141 140.477L294.908 140.469Z" fill="#FFB3A4"/>
<path d="M286.217 154.032C293.095 154.032 298.67 149.956 298.67 144.928C298.67 139.899 293.095 135.823 286.217 135.823C279.34 135.823 273.765 139.899 273.765 144.928C273.765 149.956 279.34 154.032 286.217 154.032Z" fill="#242854"/>
<path d="M299.459 134.371C299.459 134.371 295.825 150.251 282.747 149.693C274.052 149.322 269.557 134.307 268.924 127.117C268.394 121.115 276.212 116.501 281.938 117.717C288.991 119.217 289.373 130.93 296.785 130.248L299.459 134.371Z" fill="#FFB3A4"/>
<path d="M278.284 128.138C275.272 128.907 272.337 129.954 269.518 131.265C269.077 129.78 268.774 128.259 268.613 126.719C268.215 122.332 272.283 118.699 276.73 117.522C277.196 117.674 277.678 117.841 278.184 118.029C280.484 118.878 276.818 123.281 278.284 128.138Z" fill="#EA786C"/>
<path d="M281.033 117.414C283.452 118.308 278.109 122.998 279.276 128.182C274.15 129.29 269.086 130.67 264.106 132.318C264.106 132.318 259.528 125.279 263.146 120.481C266.764 115.684 273.259 114.543 281.033 117.414Z" fill="#252954"/>
<path d="M296.881 135.141C299.308 135.141 301.276 133.172 301.276 130.742C301.276 128.313 299.308 126.344 296.881 126.344C294.453 126.344 292.485 128.313 292.485 130.742C292.485 133.172 294.453 135.141 296.881 135.141Z" fill="#FFB3A4"/>
<path d="M259.974 170.483C265.911 167.484 272.391 171.548 269.179 180.995C266.852 187.835 246.088 228.237 243.733 231.746C229.431 239.754 173.335 230.666 173.335 230.666C173.335 230.666 165.533 233.996 163.269 234.023C162.277 234.023 156.24 232.891 156.24 232.891C156.24 232.891 156.045 232.193 156.974 231.324C157.902 230.454 164.393 231.435 162.09 229.33C161.066 228.4 155.714 230.187 153.324 232.309C150.933 234.43 149.917 232.632 149.917 232.632C149.917 232.632 152.28 228.62 153.104 227.91C153.929 227.2 159.293 224.257 162.859 223.922C165.445 223.679 171.625 224.404 174.845 225.326C187.373 222.893 212.955 219.531 229.563 220.516C229.539 220.536 246.785 177.147 259.974 170.483Z" fill="#FFB3A4"/>
<path d="M299.415 156.365C299.415 156.365 303.24 163.348 324.24 170.562C324.24 170.562 324.164 179.599 320.757 191.483C315.366 210.291 308.404 236.588 308.508 246.945C308.508 246.945 285.863 253.473 262.505 246.945C262.505 246.945 262.68 215.567 260.691 214.147C258.703 212.728 253.567 199.567 255.268 193.039C256.97 186.51 263.744 169.462 263.744 169.462C263.744 169.462 277.607 165.31 278.794 157.075C285.67 157.71 292.599 157.471 299.415 156.365Z" fill="#FFF4DE"/>
<path d="M181.81 367.294C178.184 380.785 166.441 393.698 167.166 396.598C167.892 399.497 172.414 403.05 171.231 407.621C170.402 410.811 163.763 409.264 158.619 411.828C153.475 414.392 155.16 417.056 146.896 417.343C138.632 417.63 131.671 417.343 131.671 417.343C131.671 417.343 131.814 414.153 135.584 413.427C139.353 412.701 151.658 405.451 155.427 390.795C158.918 377.236 160.066 367.294 160.066 367.294H181.81Z" fill="#FFB3A4"/>
<path d="M181.81 367.294C180.738 371.282 178.87 375.206 176.989 378.859C168.589 378.237 162.795 376.183 158.994 374.321C159.763 369.934 160.066 367.314 160.066 367.314L181.81 367.294Z" fill="#3A193F"/>
<path d="M262.672 243.12L256.751 249.07C254.575 249.648 195.581 268.364 187.608 279.243C179.635 290.122 153.69 369.18 153.69 369.18C153.69 369.18 164.704 376.921 191.381 374.006C191.381 374.006 206.595 342.206 208.771 298.537C208.771 298.537 276.172 303.183 286.03 286.932C295.888 270.681 287.493 246.167 287.493 246.167C287.493 246.167 270.139 245.397 262.672 243.12Z" fill="#A1CBE2"/>
<path d="M170.354 417.483H127.415C126.343 417.483 125.474 418.352 125.474 419.425V419.62C125.474 420.693 126.343 421.563 127.415 421.563H170.354C171.426 421.563 172.295 420.693 172.295 419.62V419.425C172.295 418.352 171.426 417.483 170.354 417.483Z" fill="#7B688A"/>
<path d="M153.304 417.483C153.304 417.483 147.892 411.154 146.876 404.909C146.518 402.699 139.656 405.902 135.799 407.489C125.315 411.8 127.511 417.483 127.511 417.483H153.304Z" fill="#7B688A"/>
<path d="M231.181 367.9C233.775 373.571 241.374 392.442 241.541 398.775C241.812 408.099 225.327 416.063 224.211 416.992C222.359 418.536 224.55 419.728 224.55 419.728C224.55 419.728 255.372 416.219 258.819 414.623C262.265 413.028 254.328 404.223 253.527 397.746C252.726 391.27 253.878 373.284 252.455 365.272L231.181 367.9Z" fill="#FFB3A4"/>
<path d="M253.232 377.12C248.526 378.664 242.378 380.355 236.496 380.981C234.46 375.521 232.328 370.413 231.177 367.9L252.475 365.272C253.005 368.223 253.18 372.534 253.232 377.12Z" fill="#3A193F"/>
<path d="M308.544 243.12C308.544 243.12 327.631 276.922 313.573 293.743C298.395 311.909 235.157 305.081 235.157 305.081C235.157 305.081 255.591 327.267 258.635 374.995C258.635 374.995 237.744 378.915 224.996 375.577C224.996 375.577 206.643 314.162 205.145 296.958C203.264 275.327 272.984 260.815 272.984 260.815L275.802 245.261C275.802 245.261 290.162 247.307 308.544 243.12Z" fill="#A1CBE2"/>
<path d="M261.164 414.746L218.547 420.006C217.484 420.137 216.728 421.106 216.859 422.171L216.883 422.365C217.014 423.429 217.983 424.186 219.046 424.055L261.663 418.795C262.726 418.664 263.482 417.694 263.351 416.63L263.327 416.436C263.196 415.371 262.227 414.615 261.164 414.746Z" fill="#7B688A"/>
<path d="M244.219 416.849C244.219 416.849 240.234 407.278 230.535 408.474C220.836 409.67 218.621 420.011 218.621 420.011L244.219 416.849Z" fill="#7B688A"/>
<path d="M340.214 235.786C329.34 242.689 276.459 221.202 276.459 221.202C276.459 221.202 273.271 225.792 269.753 225.792C266.234 225.792 262.979 224.42 261.146 225.84C259.313 227.26 257.4 229.565 255.997 229.768C254.316 230.043 252.592 229.886 250.989 229.31C250.989 229.31 252.184 227.18 253.439 225.13C252.32 225.884 250.797 227.563 249.949 228.221C249.617 228.5 249.202 228.661 248.769 228.677C248.336 228.694 247.91 228.566 247.558 228.313C247.558 228.313 250.012 224.911 250.961 224.01C251.909 223.108 254.603 221.94 256.308 221.314C258.181 220.588 269.016 216.353 274.363 215.731C280.037 215.069 326.248 219.611 326.248 219.611C326.248 219.611 315.724 193.37 315.043 186.57C314.039 176.541 318.298 170.451 323.411 170.443C332.512 170.407 349.232 230.063 340.214 235.786Z" fill="#FFB3A4"/>
<path d="M252.694 229.732C252.655 229.734 252.616 229.722 252.583 229.7C252.56 229.686 252.54 229.667 252.524 229.644C252.508 229.622 252.497 229.597 252.491 229.57C252.485 229.543 252.485 229.516 252.489 229.489C252.494 229.462 252.504 229.436 252.519 229.413C252.885 228.839 256.133 223.77 257.281 223.2C259.273 222.219 261.867 220.923 261.867 220.923L262.054 221.298L257.468 223.575C256.583 224.014 253.85 228.101 252.869 229.637C252.851 229.666 252.825 229.691 252.794 229.708C252.764 229.724 252.729 229.733 252.694 229.732Z" fill="#DB7800"/>
<path d="M254.973 229.732C254.936 229.732 254.899 229.722 254.867 229.703C254.835 229.683 254.809 229.655 254.791 229.622C254.773 229.589 254.765 229.552 254.767 229.514C254.769 229.477 254.781 229.44 254.802 229.409C254.93 229.218 257.97 224.775 259.133 224.201C261.126 223.216 263.72 221.924 263.72 221.924L263.907 222.295C263.907 222.295 261.309 223.591 259.321 224.572C258.432 225.011 256.005 228.38 255.145 229.645C255.125 229.672 255.099 229.694 255.07 229.709C255.04 229.724 255.007 229.732 254.973 229.732Z" fill="#DB7800"/>
<path d="M438.788 237.573H35.5794V246.223H438.788V237.573Z" fill="#FFF4DE"/>
<path d="M427.615 391.645H377.408V397.711H427.615V391.645Z" fill="#F4E8CE"/>
<path d="M420.634 246.51H384.321V254.55H420.634V246.51Z" fill="#FFF4DE"/>
<path d="M434.688 421.559C433.825 421.559 432.989 421.257 432.326 420.705C431.663 420.153 431.214 419.385 431.058 418.536L403.312 267.455C403.276 267.259 403.173 267.083 403.021 266.956C402.868 266.828 402.676 266.759 402.477 266.759C402.279 266.759 402.087 266.828 401.934 266.956C401.781 267.083 401.678 267.259 401.643 267.455L373.893 418.536C373.737 419.385 373.289 420.153 372.625 420.706C371.962 421.258 371.126 421.56 370.263 421.559C369.722 421.559 369.188 421.44 368.698 421.21C368.208 420.981 367.774 420.646 367.428 420.23C367.081 419.815 366.831 419.327 366.693 418.804C366.556 418.28 366.535 417.733 366.633 417.2L396.558 254.267H408.393L438.318 417.2C438.416 417.733 438.396 418.28 438.259 418.804C438.122 419.328 437.871 419.816 437.525 420.232C437.178 420.648 436.744 420.983 436.254 421.212C435.764 421.441 435.229 421.56 434.688 421.559Z" fill="#FFF4DE"/>
<path d="M97.0316 391.645H46.8243V397.711H97.0316V391.645Z" fill="#F4E8CE"/>
<path d="M90.0464 246.51H53.7338V254.55H90.0464V246.51Z" fill="#FFF4DE"/>
<path d="M104.104 421.559C103.242 421.559 102.406 421.257 101.743 420.705C101.08 420.153 100.631 419.385 100.474 418.536L72.7249 267.459C72.689 267.263 72.5859 267.087 72.4334 266.96C72.2808 266.832 72.0886 266.763 71.8901 266.763C71.6916 266.763 71.4993 266.832 71.3468 266.96C71.1943 267.087 71.0911 267.263 71.0553 267.459L43.3098 418.536C43.1533 419.385 42.7044 420.153 42.0412 420.705C41.378 421.257 40.5424 421.559 39.6797 421.559C39.1385 421.56 38.6038 421.441 38.1135 421.212C37.6232 420.983 37.1894 420.648 36.8429 420.232C36.4963 419.816 36.2456 419.328 36.1086 418.804C35.9715 418.28 35.9513 417.733 36.0496 417.2L65.9708 254.267H77.8094L107.735 417.2C107.832 417.733 107.811 418.28 107.674 418.804C107.537 419.327 107.286 419.815 106.94 420.23C106.593 420.646 106.16 420.981 105.67 421.21C105.18 421.44 104.645 421.559 104.104 421.559Z" fill="#FFF4DE"/>
<path d="M147.717 165.207C149.837 165.207 151.303 163.141 151.303 160.967V148.796C151.304 148.235 151.194 147.679 150.98 147.16C150.765 146.641 150.451 146.169 150.055 145.772C149.659 145.374 149.188 145.059 148.67 144.844C148.152 144.628 147.597 144.517 147.036 144.517H119.346C118.785 144.517 118.229 144.628 117.71 144.843C117.192 145.058 116.721 145.373 116.324 145.77C115.927 146.168 115.613 146.64 115.398 147.159C115.184 147.678 115.074 148.234 115.074 148.796V160.967C115.074 162.101 115.524 163.189 116.325 163.99C117.127 164.792 118.213 165.242 119.346 165.242H135.576C139.56 165.242 141.688 171.623 141.688 171.623C141.688 171.623 143.051 165.207 147.717 165.207Z" fill="#FFF4DE"/>
<path d="M125.271 156.369C126.151 156.369 126.865 155.655 126.865 154.774C126.865 153.893 126.151 153.179 125.271 153.179C124.391 153.179 123.677 153.893 123.677 154.774C123.677 155.655 124.391 156.369 125.271 156.369Z" fill="#7B688A"/>
<path d="M133.185 156.473C134.065 156.473 134.779 155.759 134.779 154.878C134.779 153.997 134.065 153.282 133.185 153.282C132.305 153.282 131.591 153.997 131.591 154.878C131.591 155.759 132.305 156.473 133.185 156.473Z" fill="#7B688A"/>
<path d="M141.098 156.473C141.979 156.473 142.692 155.759 142.692 154.878C142.692 153.997 141.979 153.282 141.098 153.282C140.218 153.282 139.505 153.997 139.505 154.878C139.505 155.759 140.218 156.473 141.098 156.473Z" fill="#7B688A"/>
<path d="M201.969 180.217H137.174C136.458 180.216 135.752 180.389 135.118 180.72C134.483 181.051 133.938 181.531 133.529 182.119C133.12 182.706 132.859 183.385 132.768 184.095C132.678 184.806 132.761 185.528 133.01 186.199L149.347 230.626H225.224L208.328 184.644C207.848 183.344 206.98 182.223 205.843 181.431C204.706 180.64 203.354 180.216 201.969 180.217Z" fill="#7B688A"/>
<path d="M200.694 182.47H137.512C136.816 182.471 136.13 182.639 135.512 182.961C134.895 183.284 134.365 183.751 133.966 184.323C133.568 184.894 133.314 185.554 133.225 186.245C133.136 186.936 133.215 187.639 133.456 188.293L149.395 231.615H223.371L206.898 186.801C206.43 185.531 205.585 184.435 204.475 183.661C203.366 182.886 202.046 182.471 200.694 182.47Z" fill="#7B688A"/>
<path d="M149.199 230.614H273.49C274.324 230.614 275.15 230.778 275.921 231.097C276.692 231.417 277.392 231.885 277.982 232.475C278.571 233.066 279.039 233.766 279.358 234.538C279.678 235.309 279.842 236.136 279.842 236.97V237.142H155.551C153.866 237.142 152.251 236.472 151.06 235.28C149.869 234.088 149.199 232.471 149.199 230.785V230.614Z" fill="#7B688A"/>
<path d="M182.029 212.235C184.35 209.656 183.652 205.241 180.471 202.374C177.29 199.508 172.83 199.275 170.51 201.855C168.189 204.434 168.886 208.849 172.067 211.716C175.248 214.582 179.708 214.815 182.029 212.235Z" fill="#FFD473"/>
<path d="M241.266 232.95H235.97V234.853H241.266V232.95Z" fill="#3A193F"/>
<path d="M251.383 232.95H246.088V234.853H251.383V232.95Z" fill="#7B688A"/>
<path d="M378.017 219.28H375.969V215.128H357.277V234.024C357.276 234.49 357.368 234.952 357.546 235.382C357.724 235.813 357.985 236.205 358.314 236.534C358.644 236.864 359.035 237.126 359.465 237.304C359.896 237.482 360.357 237.573 360.823 237.573H372.423C373.363 237.573 374.265 237.199 374.93 236.533C375.595 235.868 375.969 234.965 375.969 234.024V227.583H378.017C379.117 227.583 380.172 227.146 380.95 226.367C381.728 225.588 382.165 224.532 382.165 223.431C382.165 222.33 381.728 221.274 380.95 220.496C380.172 219.717 379.117 219.28 378.017 219.28ZM379.476 224.979C379.273 225.182 379.032 225.343 378.766 225.452C378.501 225.562 378.217 225.618 377.93 225.617H375.969V221.23H377.93C378.362 221.229 378.785 221.357 379.145 221.597C379.505 221.837 379.785 222.179 379.951 222.579C380.116 222.978 380.16 223.418 380.075 223.843C379.99 224.267 379.782 224.657 379.476 224.963V224.979Z" fill="white" stroke="#7B688A" stroke-width="3" stroke-miterlimit="10"/>
<path d="M368.047 213.358C367.063 212.349 361.907 208.971 363.059 204.11C364.21 199.248 371.51 200.301 371.287 194.869C371.096 190.263 367.063 192.11 366.179 193.789C366.179 193.789 366.713 187.711 372.259 189.741C381.623 193.167 370.753 202.901 367.645 205.593C364.792 208.07 368.047 213.358 368.047 213.358Z" fill="#FFF4DE"/>
<path d="M374.594 200.329C374.594 200.329 373.399 204.433 368.534 206.45C368.534 206.45 376.001 206.45 374.594 200.329Z" fill="#FFF4DE"/>
<path d="M428.456 237.573C428.456 237.573 442.466 160.752 372.295 150.028" stroke="#7B688A" stroke-width="3" stroke-miterlimit="10"/>
<path d="M428.731 237.146H391.378C393.984 231.096 401.34 226.733 410.054 226.733C418.769 226.733 426.125 231.096 428.731 237.146Z" fill="#7B688A"/>
<path d="M428.731 237.146H424.029C421.554 231.407 414.557 227.268 406.309 227.268C405.727 227.268 405.153 227.268 404.587 227.332C406.382 226.933 408.215 226.732 410.054 226.733C418.745 226.733 426.125 231.096 428.731 237.146Z" fill="#7B688A"/>
<path d="M372.897 150.746C372.558 152.265 371.363 153.454 369.665 154.176C367.721 155.005 365.115 155.225 362.405 154.622C359.696 154.02 357.428 152.74 356.006 151.145C354.77 149.773 354.185 148.19 354.519 146.67C355.241 143.408 359.939 141.673 365.015 142.794C370.092 143.915 373.618 147.476 372.897 150.746Z" fill="#7B688A"/>
<path d="M372.897 150.746C372.582 152.17 371.506 153.306 369.968 154.04C370.691 153.469 371.2 152.671 371.415 151.775C372.088 148.728 368.797 145.414 364.067 144.365C359.604 143.38 355.452 144.764 354.428 147.476C354.432 147.208 354.463 146.941 354.519 146.678C355.241 143.412 359.939 141.677 365.015 142.798C370.092 143.919 373.618 147.48 372.897 150.746Z" fill="#7B688A"/>
<path d="M368.637 153.414C366.695 154.102 364.598 154.23 362.586 153.785C360.575 153.339 358.728 152.338 357.257 150.894C356.599 149.458 360.481 148.956 363.505 149.625C366.529 150.295 369.888 152.656 368.637 153.414Z" fill="#7B688A"/>
<path d="M95.2624 118.256H228.085V130.427L95.2345 119.193C94.8839 119.157 94.9078 118.256 95.2624 118.256Z" fill="#FFF4DE"/>
<path d="M213.764 58.0571H208.177C207.044 58.0571 206.125 58.9767 206.125 60.1109V105.913C206.125 107.047 207.044 107.967 208.177 107.967H213.764C214.897 107.967 215.816 107.047 215.816 105.913V60.1109C215.816 58.9767 214.897 58.0571 213.764 58.0571Z" fill="white" stroke="#7B688A" stroke-width="3" stroke-miterlimit="10"/>
<path d="M203.523 62.2805H196.852C195.746 62.2805 194.848 63.1786 194.848 64.2865V106.95C194.848 108.058 195.746 108.956 196.852 108.956H203.523C204.63 108.956 205.527 108.058 205.527 106.95V64.2865C205.527 63.1786 204.63 62.2805 203.523 62.2805Z" fill="#7B688A"/>
<path d="M192.979 50.9465H191.178C190.146 50.9465 189.309 51.7839 189.309 52.8169V107.086C189.309 108.118 190.146 108.956 191.178 108.956H192.979C194.011 108.956 194.848 108.118 194.848 107.086V52.8169C194.848 51.7839 194.011 50.9465 192.979 50.9465Z" fill="#D6EAF2"/>
<path d="M186.863 65.6621H182.065C180.934 65.6621 180.017 66.5798 180.017 67.7119V106.316C180.017 107.448 180.934 108.366 182.065 108.366H186.863C187.994 108.366 188.911 107.448 188.911 106.316V67.7119C188.911 66.5798 187.994 65.6621 186.863 65.6621Z" fill="white" stroke="#7B688A" stroke-width="3" stroke-miterlimit="10"/>
<path d="M163.477 108.956H155.714L175.132 56.8847C175.207 56.6829 175.342 56.5088 175.518 56.3856C175.695 56.2623 175.905 56.1958 176.12 56.1948H181.627C181.799 56.1972 181.968 56.241 182.12 56.3226C182.271 56.4041 182.401 56.5211 182.498 56.6635C182.595 56.8059 182.656 56.9695 182.677 57.1407C182.697 57.3118 182.676 57.4852 182.615 57.6465L163.477 108.956Z" fill="#7B688A"/>
<path d="M227.706 108.956H95.5533V117.682H227.706V108.956Z" fill="white" stroke="#7B688A" stroke-width="3" stroke-miterlimit="10"/>
<path d="M108.91 89.6101H142.254V93.2751C142.254 97.4349 140.603 101.424 137.664 104.366C134.725 107.307 130.739 108.96 126.582 108.96H124.566C120.409 108.96 116.423 107.307 113.484 104.366C110.545 101.424 108.894 97.4349 108.894 93.2751V89.6101H108.91Z" fill="#7B688A"/>
<path d="M138.919 89.6101H114.214C114.214 89.6101 106.985 95.5084 102.861 90.6709C99.8727 87.1695 114.17 87.0139 114.17 87.0139L114.6 86.8624C114.6 86.8624 108.468 73.9732 114.265 71.8237C118.25 70.3361 119.238 81.2553 119.446 84.8006C121.554 83.9192 125.666 82.6471 126.02 85.997C126.02 85.997 126.479 72.2025 132.252 73.5186C137.054 74.6153 129.933 87.5802 129.933 87.5802L130.431 87.8833C130.431 87.8833 143.625 78.2403 146.86 80.4816C149.307 82.1765 138.919 89.6101 138.919 89.6101Z" fill="#A1CBE2"/>
<path d="M117.995 89.6101C117.995 89.6101 118.25 77.7179 122.725 78.045C127.2 78.372 120.964 89.6101 120.964 89.6101H117.995Z" fill="#D6EAF2"/>
<path d="M117.995 89.6101C117.995 89.6101 113.508 78.3879 107.428 81.2632C101.487 84.0548 114.265 89.6101 114.265 89.6101H117.995Z" fill="#D6EAF2"/>
<path d="M127.216 89.6101C127.216 89.6101 131.244 79.5005 137.632 80.4616C144.019 81.4228 129.746 89.6101 129.746 89.6101H127.216Z" fill="#D6EAF2"/>
<path d="M133.787 89.6101C133.787 89.6101 146.283 83.313 148.53 87.1096C150.777 90.9062 133.787 89.6101 133.787 89.6101Z" fill="#D6EAF2"/>
<path d="M281.508 143.133C281.508 143.133 284.799 143.508 287.437 139.572" stroke="#3A1A3F" stroke-width="3" stroke-linecap="round" stroke-linejoin="round"/>
<path d="M294.605 131.839C294.605 131.839 294.605 128.202 297.793 128.25" stroke="#E2564B" stroke-width="3" stroke-linecap="round" stroke-linejoin="round"/>
<path d="M295.342 129.873L297.466 130.866" stroke="#E2564B" stroke-width="3" stroke-linecap="round" stroke-linejoin="round"/>
<path d="M300.288 135.6C301.179 135.6 301.901 134.877 301.901 133.985C301.901 133.093 301.179 132.369 300.288 132.369C299.396 132.369 298.674 133.093 298.674 133.985C298.674 134.877 299.396 135.6 300.288 135.6Z" fill="#FFCDC5"/>
<path d="M279.336 132.369V138.603L280.998 139.277" stroke="#E2564B" stroke-width="3" stroke-linecap="round" stroke-linejoin="round"/>
<path d="M282.141 126.994C282.141 126.994 283.962 125.582 287.106 126.994" stroke="#3A1A3F" stroke-width="3" stroke-linecap="round" stroke-linejoin="round"/>
<path d="M285.185 132.865C285.782 132.76 286.155 132.049 286.02 131.277C285.885 130.505 285.292 129.963 284.696 130.068C284.1 130.173 283.726 130.883 283.861 131.656C283.996 132.428 284.589 132.969 285.185 132.865Z" fill="#242854"/>
<path d="M275.193 135.406C275.782 135.267 276.114 134.536 275.935 133.773C275.756 133.01 275.133 132.503 274.543 132.642C273.954 132.781 273.622 133.512 273.802 134.275C273.981 135.039 274.604 135.545 275.193 135.406Z" fill="#242854"/>
<path d="M224.996 375.573C224.996 375.573 206.643 314.158 205.145 296.954C203.264 275.327 272.984 260.815 272.984 260.815" stroke="#639AD6" stroke-width="3" stroke-miterlimit="10"/>
</svg>
