<svg width="543" height="600" viewBox="0 0 543 543" fill="none" xmlns="http://www.w3.org/2000/svg">
<g clip-path="url(#clip0_8_1218)">
<path d="M543 246.5C543.056 280.839 535.899 314.807 521.994 346.207C521.545 347.221 521.09 348.229 520.629 349.231C520.401 349.735 520.167 350.233 519.934 350.737C519.7 351.235 519.466 351.739 519.227 352.237C518.919 352.882 518.612 353.522 518.298 354.161C517.911 354.966 517.517 355.765 517.111 356.564C517.062 356.675 517.007 356.786 516.945 356.896C516.607 357.573 516.269 358.249 515.918 358.925C515.844 359.072 515.771 359.22 515.691 359.361C515.291 360.148 514.879 360.935 514.461 361.716V361.722C514.018 362.552 513.573 363.38 513.126 364.205C512.02 366.246 510.882 368.269 509.714 370.273C509.363 370.869 509.019 371.465 508.662 372.055C508.336 372.608 508.01 373.156 507.678 373.703C507.451 374.084 507.223 374.459 506.989 374.834C506.62 375.442 506.245 376.051 505.864 376.659C505.858 376.666 505.858 376.666 505.858 376.672C505.015 378.024 504.155 379.37 503.288 380.704H503.281C502.882 381.325 502.476 381.94 502.07 382.555V382.561C500.846 384.405 499.598 386.23 498.325 388.038V388.044C498.32 388.044 498.316 388.047 498.313 388.05V388.056L498.3 388.068C497.292 389.513 496.263 390.945 495.213 392.365V392.371C494.543 393.281 493.867 394.191 493.184 395.088C492.625 395.826 492.059 396.562 491.487 397.295C491.37 397.455 491.247 397.609 491.118 397.769V397.775C490.964 397.978 490.811 398.174 490.645 398.377V398.383C488.216 401.488 485.713 404.53 483.136 407.512H483.13C482.995 407.678 482.853 407.838 482.712 407.997C482.577 408.157 482.429 408.317 482.288 408.483H482.281C482.066 408.735 481.845 408.987 481.624 409.239C481.408 409.491 481.181 409.743 480.953 409.995V410.001C467.523 425.149 452.282 438.589 435.571 450.019C433.345 451.55 431.091 453.04 428.807 454.488C428.241 454.851 427.676 455.207 427.104 455.564C426.932 455.681 426.759 455.785 426.587 455.89C426.286 456.08 425.978 456.271 425.671 456.461C425.37 456.646 425.062 456.836 424.755 457.021C423.531 457.771 422.295 458.508 421.059 459.234C420.752 459.418 420.438 459.597 420.124 459.781C419.817 459.959 419.503 460.137 419.19 460.316C419.185 460.322 419.18 460.328 419.174 460.332C419.167 460.336 419.16 460.339 419.153 460.34L419.14 460.346L419.128 460.359H419.122C417.572 461.25 416.017 462.129 414.442 462.977C411.626 464.514 408.781 465.996 405.907 467.422C405.194 467.778 404.474 468.129 403.755 468.479C403.158 468.768 402.556 469.057 401.959 469.34C401.793 469.42 401.633 469.5 401.467 469.573C400.969 469.807 400.471 470.04 399.973 470.268C399.432 470.526 398.885 470.772 398.344 471.018C397.735 471.294 397.132 471.565 396.523 471.835C394.236 472.856 391.924 473.839 389.605 474.786C381.323 478.176 372.859 481.103 364.252 483.552C363.852 483.669 363.446 483.785 363.04 483.896C359.357 484.929 355.647 485.873 351.91 486.73C345.386 488.23 338.802 489.461 332.159 490.424C332.146 490.424 332.128 490.431 332.116 490.431C331.322 490.547 330.523 490.658 329.73 490.769C329.662 490.781 329.588 490.793 329.514 490.799C329.508 490.805 329.502 490.805 329.49 490.799C329.49 490.799 329.49 490.805 329.484 490.799C328.604 490.916 327.725 491.033 326.839 491.144C326.778 491.156 326.716 491.162 326.655 491.168C325.831 491.267 325.001 491.365 324.171 491.457C323.279 491.555 322.387 491.648 321.49 491.74C320.807 491.807 320.124 491.875 319.442 491.937C319.381 491.949 319.319 491.955 319.257 491.955C318.636 492.01 318.015 492.066 317.394 492.115C317.37 492.115 317.339 492.121 317.314 492.121C316.773 492.17 316.232 492.207 315.691 492.25C309.326 492.754 302.9 493.004 296.413 493C289.372 493 282.403 492.707 275.505 492.121C275.48 492.121 275.456 492.115 275.431 492.115C273.962 491.992 272.494 491.857 271.028 491.709C270.641 491.672 270.26 491.629 269.872 491.592C269.799 491.586 269.725 491.58 269.651 491.568C269.534 491.555 269.417 491.543 269.294 491.531C269.233 491.525 269.165 491.519 269.104 491.506C268.593 491.451 268.083 491.396 267.566 491.334C266.994 491.267 266.416 491.199 265.845 491.125C265.273 491.058 264.695 490.984 264.123 490.904C264 490.892 263.871 490.879 263.748 490.855C263.329 490.806 262.911 490.75 262.499 490.689C262.296 490.664 262.1 490.633 261.903 490.603C261.503 490.547 261.11 490.492 260.71 490.431C260.698 490.431 260.679 490.424 260.667 490.424C248.11 488.612 235.714 485.818 223.593 482.07H223.586C222.928 481.868 222.271 481.659 221.613 481.45C221.416 481.394 221.219 481.333 221.022 481.265C219.313 480.718 217.613 480.153 215.924 479.569C213.594 478.769 211.28 477.933 208.982 477.061C208.355 476.821 207.734 476.581 207.106 476.341C205.858 475.85 204.616 475.358 203.38 474.854C201.271 473.993 199.176 473.106 197.095 472.192H197.089V472.186C195.146 471.331 193.217 470.45 191.303 469.543C191.246 469.526 191.192 469.501 191.143 469.469C191.137 469.469 191.137 469.463 191.13 469.463C190.706 469.266 190.282 469.063 189.858 468.86L189.845 468.854C179.298 463.8 169.127 457.994 159.412 451.482C156.295 449.398 153.23 447.245 150.219 445.022C147.79 443.233 145.396 441.399 143.037 439.52C131.285 430.183 120.409 419.794 110.544 408.483H110.538V408.477C109.843 407.684 109.166 406.897 108.478 406.098V406.092C108.379 405.981 108.287 405.871 108.195 405.76C107.758 405.25 107.334 404.746 106.91 404.229V404.223C106.332 403.541 105.766 402.856 105.212 402.17C105.089 402.022 104.973 401.881 104.856 401.734H104.85V401.727C104.395 401.174 103.946 400.615 103.503 400.055C103.275 399.779 103.054 399.496 102.833 399.213H102.826V399.207C101.486 397.517 100.172 395.81 98.8848 394.087V394.08C98.5281 393.607 98.1776 393.134 97.8333 392.654H97.8271C96.1791 390.429 94.5741 388.177 93.0122 385.899V385.892C92.4219 385.038 91.8377 384.177 91.2597 383.311C90.6816 382.444 90.1097 381.575 89.544 380.704H89.5378C88.9537 379.807 88.3757 378.905 87.8037 377.999C87.773 377.95 87.7423 377.907 87.7177 377.864C87.1519 376.973 86.5944 376.075 86.0451 375.172C85.6023 374.453 85.1657 373.74 84.7414 373.02C84.4463 372.535 84.1572 372.055 83.8744 371.563C83.7698 371.397 83.6776 371.232 83.5854 371.072C82.9335 369.959 82.294 368.846 81.6545 367.728C80.9104 366.412 80.1725 365.084 79.453 363.757C79.1579 363.209 78.8627 362.656 78.5737 362.103C78.4691 361.925 78.3769 361.746 78.2847 361.562C77.9403 360.91 77.5959 360.259 77.2577 359.601C76.9195 358.949 76.5813 358.292 76.2492 357.634C75.9172 356.976 75.5851 356.319 75.2592 355.655C75.0132 355.157 74.7672 354.653 74.5274 354.155C74.5025 354.113 74.4799 354.07 74.4598 354.026C74.3491 353.792 74.2323 353.565 74.1277 353.331C74.1032 353.295 74.0845 353.256 74.0724 353.214C73.8203 352.698 73.5743 352.188 73.3345 351.671C73.0147 351.007 72.7072 350.337 72.3998 349.667C72.1784 349.2 71.9693 348.727 71.7541 348.254C71.4466 347.59 71.1453 346.92 70.8502 346.243C70.5365 345.549 70.2352 344.848 69.9339 344.147C69.854 343.969 69.7801 343.797 69.7063 343.619C69.5649 343.299 69.4296 342.979 69.2943 342.66C68.9315 341.811 68.5749 340.951 68.2244 340.096C67.8247 339.131 67.4352 338.164 67.056 337.195C66.6932 336.291 66.3406 335.385 65.9983 334.478L65.8692 334.146V334.14C60.5261 320.102 56.4833 305.604 53.7919 290.827V290.821C52.2573 282.384 51.1654 273.873 50.5206 265.323C50.4837 264.855 50.4529 264.388 50.4222 263.921C50.0163 258.137 49.8175 252.33 49.8257 246.5C49.8257 243.912 49.8667 241.336 49.9487 238.773C51.543 185.182 70.6536 133.587 104.358 91.8812C105.84 90.0432 107.348 88.2277 108.884 86.4348C154.105 33.5326 221.342 0 296.413 0C384.182 0 461.245 45.8392 504.936 114.878C507.211 118.455 509.388 122.098 511.466 125.807C532.205 162.65 543.068 204.225 543 246.5Z" fill="#C6ECF9"/>
<path d="M415.82 439.981C414.934 442.427 414.051 444.874 413.169 447.321C413.003 447.788 412.831 448.249 412.665 448.716C410.415 454.949 408.162 461.184 405.907 467.422C405.194 467.778 404.474 468.129 403.755 468.479C403.158 468.768 402.556 469.057 401.959 469.34C401.793 469.42 401.633 469.499 401.467 469.573C400.969 469.807 400.471 470.04 399.973 470.268C399.432 470.526 398.885 470.772 398.343 471.018C397.735 471.294 397.132 471.565 396.523 471.835C396.207 471.011 396.026 470.142 395.988 469.26C395.962 467.875 396.125 466.494 396.474 465.153C397.009 462.94 397.858 460.771 398.417 458.551C398.448 458.447 398.473 458.336 398.497 458.232C399.745 452.934 399.168 447.37 396.861 442.44C395.472 439.501 393.479 436.827 392.612 433.692C391.859 430.749 392.193 427.632 393.553 424.914C394.058 423.86 394.692 422.873 395.441 421.976C395.619 421.749 395.81 421.533 396.007 421.318C397.815 419.332 400.219 417.984 402.857 417.476C407.906 416.579 413.182 419.265 416.004 423.482C417.161 425.176 417.866 427.138 418.052 429.18C418.359 432.875 417.08 436.496 415.82 439.981Z" fill="#C4C4C4"/>
<path d="M401.879 464.951C400.723 462.818 398.786 460.949 398.417 458.552C397.218 450.855 394.328 445.335 389.538 442.206C388.148 441.303 387.927 439.305 387.072 437.866C386.691 437.221 386.303 436.576 385.903 435.942C385.258 434.891 384.585 433.861 383.886 432.85C382.561 430.898 381.1 429.041 379.514 427.293C378.856 426.562 378.161 425.855 377.442 425.185L377.436 425.179C376.987 424.748 376.532 424.337 376.058 423.937C375.874 423.777 375.683 423.617 375.486 423.458L375.474 423.445C374.643 422.725 373.773 422.052 372.867 421.429C370.782 420.021 368.427 419.044 366.01 419.825C365.061 420.15 364.146 420.57 363.28 421.079C362.837 421.331 362.401 421.595 361.964 421.859C361.669 422.038 361.374 422.216 361.079 422.4C360.839 422.542 360.599 422.683 360.359 422.818C358.502 423.888 356.637 424.937 354.763 425.966C354.493 426.119 354.222 426.267 353.945 426.414H353.939C353.749 426.525 353.552 426.629 353.355 426.734C352.98 426.943 352.599 427.152 352.224 427.355C351.098 427.963 349.971 428.566 348.842 429.162C348.264 429.469 347.679 429.764 347.095 430.06C346.825 430.195 346.554 430.33 346.29 430.471H346.283C346.185 430.521 346.093 430.57 345.994 430.619C345.195 431.031 344.408 431.455 343.645 431.916C341.434 433.248 339.512 435.01 337.994 437.098C337.699 437.504 337.416 437.922 337.158 438.352C336.819 438.909 336.511 439.483 336.235 440.073C336.045 440.473 335.866 440.872 335.707 441.278V441.284C334.195 445.17 333.983 449.44 335.104 453.456V453.462C335.178 453.738 335.258 454.009 335.35 454.279C335.498 454.734 335.664 455.189 335.848 455.632C336.052 456.125 336.281 456.607 336.537 457.076V457.082C337.905 459.416 339.613 461.533 341.604 463.365L341.665 463.426C341.911 463.666 342.163 463.912 342.409 464.152C342.545 464.281 342.686 464.41 342.834 464.533C344.961 466.358 348.399 467.741 350.342 469.616C351.381 470.618 351.99 471.756 351.75 473.176C351.111 476.944 351.252 479.384 351.904 480.952C353.675 485.23 359.234 483.054 363.04 483.896C363.446 483.785 363.852 483.669 364.252 483.552C372.859 481.103 381.323 478.176 389.605 474.786C391.924 473.839 394.236 472.856 396.523 471.835C397.132 471.565 397.735 471.295 398.343 471.018C398.885 470.772 399.432 470.526 399.973 470.268C400.471 470.041 400.969 469.807 401.467 469.573C401.633 469.5 401.793 469.42 401.959 469.34C402.556 469.057 403.158 468.768 403.755 468.479C403.146 467.293 402.513 466.119 401.879 464.951Z" fill="#FFA800"/>
<path d="M356.888 405.271C358.181 401.369 356.403 398.794 351.83 397.428C351.674 397.286 351.484 397.186 351.279 397.137C351.075 397.087 350.86 397.09 350.657 397.145C350.453 397.199 350.266 397.304 350.114 397.449C349.961 397.595 349.847 397.776 349.783 397.977L345.79 409.805C341.613 408.736 338.549 409.468 337.884 413.598C339.533 409.391 337.982 406.753 333.344 405.627C333.194 405.477 333.007 405.368 332.803 405.309C332.599 405.25 332.383 405.243 332.175 405.29C331.968 405.337 331.776 405.436 331.617 405.577C331.457 405.719 331.337 405.898 331.266 406.098L328.64 416.751C325.441 421.567 323.871 427.28 324.158 433.054C324.445 438.827 326.576 444.357 330.236 448.831C333.896 453.306 338.895 456.491 344.498 457.919C350.101 459.347 356.015 458.943 361.372 456.766C366.728 454.589 371.247 450.754 374.264 445.823C377.281 440.891 378.638 435.123 378.137 429.365C377.636 423.606 375.302 418.159 371.478 413.823C367.654 409.487 362.541 406.49 356.888 405.271H356.888Z" fill="#FFA800"/>
<path d="M354.346 438.979C353.806 439.268 353.174 439.331 352.588 439.154C352.002 438.977 351.51 438.576 351.22 438.037C351.179 437.96 351.17 437.87 351.195 437.786C351.221 437.703 351.278 437.633 351.355 437.591C351.432 437.55 351.522 437.541 351.606 437.566C351.689 437.591 351.76 437.648 351.801 437.725C352.008 438.109 352.36 438.396 352.778 438.522C353.197 438.648 353.648 438.602 354.033 438.396C354.418 438.189 354.705 437.838 354.832 437.42C354.958 437.002 354.914 436.551 354.708 436.166C354.667 436.089 354.658 435.999 354.683 435.915C354.708 435.832 354.766 435.762 354.843 435.72C354.92 435.679 355.01 435.67 355.093 435.695C355.177 435.72 355.247 435.777 355.289 435.854C355.578 436.393 355.641 437.026 355.464 437.611C355.287 438.197 354.885 438.689 354.346 438.979Z" fill="white"/>
<path d="M351.93 434.13C353.214 433.441 354.04 432.482 353.775 431.988C353.51 431.495 352.254 431.653 350.97 432.342C349.686 433.03 348.86 433.989 349.125 434.483C349.39 434.977 350.646 434.818 351.93 434.13Z" fill="white"/>
<path d="M338.281 434.966C338.454 434.124 338.811 433.331 339.325 432.642C339.839 431.953 340.498 431.385 341.256 430.978C342.013 430.572 342.851 430.337 343.709 430.29C344.568 430.242 345.426 430.384 346.224 430.705C346.625 429.478 346.654 428.16 346.306 426.917C345.958 425.674 345.249 424.563 344.269 423.723C343.289 422.882 342.081 422.352 340.8 422.198C339.518 422.043 338.219 422.273 337.068 422.856C335.916 423.44 334.964 424.352 334.331 425.477C333.698 426.602 333.412 427.889 333.511 429.176C333.61 430.462 334.088 431.691 334.886 432.706C335.683 433.721 336.763 434.477 337.991 434.878C338.087 434.91 338.183 434.939 338.281 434.966Z" fill="white"/>
<path d="M340.231 432.597C341.471 432.597 342.476 431.592 342.476 430.352C342.476 429.113 341.471 428.108 340.231 428.108C338.991 428.108 337.985 429.113 337.985 430.352C337.985 431.592 338.991 432.597 340.231 432.597Z" fill="#3F3D56"/>
<path d="M353.824 426.888C353.997 426.046 354.354 425.253 354.868 424.564C355.382 423.875 356.041 423.307 356.799 422.901C357.556 422.494 358.394 422.259 359.252 422.212C360.111 422.164 360.969 422.306 361.767 422.627C362.168 421.4 362.197 420.082 361.849 418.839C361.501 417.596 360.792 416.485 359.812 415.645C358.832 414.805 357.624 414.274 356.343 414.12C355.061 413.966 353.762 414.195 352.611 414.778C351.459 415.362 350.507 416.274 349.874 417.399C349.241 418.524 348.955 419.811 349.054 421.098C349.153 422.385 349.631 423.613 350.429 424.628C351.226 425.643 352.307 426.399 353.534 426.8C353.63 426.832 353.726 426.861 353.824 426.888Z" fill="white"/>
<path d="M356.598 424.394C357.838 424.394 358.844 423.389 358.844 422.149C358.844 420.91 357.838 419.905 356.598 419.905C355.358 419.905 354.353 420.91 354.353 422.149C354.353 423.389 355.358 424.394 356.598 424.394Z" fill="#3F3D56"/>
<path d="M367.867 421.994L360.2 429.804L360.974 430.563L368.64 422.753L367.867 421.994Z" fill="white"/>
<path d="M370.303 425.773L361.039 431.603L361.617 432.52L370.88 426.69L370.303 425.773Z" fill="white"/>
<path d="M343.752 438.627L333.004 440.695L333.209 441.76L343.957 439.691L343.752 438.627Z" fill="white"/>
<path d="M344.787 440.32L334.807 444.814L335.252 445.802L345.233 441.309L344.787 440.32Z" fill="white"/>
<path d="M28.2578 273.602C7.23312 254.686 -5.49753 224.606 2.3261 197.434C19.982 222.613 45.9782 240.738 75.7153 248.602C87.1947 251.593 100.274 253.725 107.258 263.311C111.604 269.275 112.613 277.157 111.584 284.464C110.555 291.77 107.68 298.671 104.831 305.478L104.982 307.314C77.2168 301.913 49.2826 292.517 28.2578 273.602Z" fill="#579F3E"/>
<path d="M2.91349 197.52C8.25709 220.053 20.8367 241.026 38.4879 256.078C42.3041 259.332 46.4586 262.301 51.1188 264.221C55.6757 266.057 60.6413 266.64 65.4997 265.909C70.0434 265.318 74.6227 264.188 79.2309 264.711C84.0881 265.263 88.1461 267.984 90.981 271.902C94.4495 276.695 95.9883 282.448 97.2975 288.127C98.7511 294.432 100.161 301.004 104.325 306.157C104.83 306.781 103.831 307.527 103.327 306.904C96.0824 297.939 97.0734 285.529 91.8264 275.622C89.3781 270.999 85.5213 267.086 80.2093 266.115C75.5642 265.266 70.8411 266.428 66.2457 267.065C61.4204 267.735 56.752 267.573 52.1228 265.939C47.3873 264.267 43.1079 261.454 39.2253 258.312C30.4741 251.12 22.9083 242.598 16.8053 233.058C9.77948 222.208 4.66215 210.236 1.67468 197.661C1.49009 196.883 2.7301 196.747 2.91348 197.52L2.91349 197.52Z" fill="white"/>
<path d="M32.4923 251.488C29.5213 254.112 25.7141 255.594 21.7507 255.67C17.7873 255.747 13.9258 254.413 10.8557 251.906C10.2362 251.396 10.9989 250.41 11.6192 250.92C14.4738 253.26 18.0709 254.502 21.7615 254.424C25.4521 254.345 28.9929 252.95 31.745 250.491C32.3437 249.957 33.0875 250.957 32.4923 251.488V251.488Z" fill="white"/>
<path d="M63.2351 266.511C63.8085 258.431 61.3141 250.432 56.2493 244.108C55.747 243.482 56.7455 242.736 57.2472 243.361C62.5054 249.951 65.0842 258.281 64.4691 266.689C64.4099 267.49 63.1763 267.308 63.2351 266.511Z" fill="white"/>
<path d="M11.4096 221.935C12.7707 221.159 13.9178 220.058 14.7479 218.73C15.578 217.401 16.065 215.888 16.1653 214.325C16.2143 213.523 17.448 213.705 17.3993 214.502C17.2805 216.228 16.7406 217.899 15.8267 219.369C14.9129 220.838 13.6529 222.062 12.1569 222.933C12.0227 223.026 11.8579 223.066 11.6958 223.042C11.5337 223.019 11.3866 222.935 11.2843 222.807C11.186 222.675 11.144 222.509 11.1675 222.345C11.191 222.182 11.278 222.035 11.4096 221.935Z" fill="white"/>
<path d="M90.1298 159.207C90.1135 159.708 90.0971 160.209 90.0892 160.717C89.9043 167.46 90.2677 174.206 91.1757 180.89C91.2377 181.408 91.3084 181.932 91.3851 182.447C93.7446 198.526 99.0698 214.028 107.09 228.164C110.287 233.786 113.907 239.157 117.918 244.23C123.459 251.236 130.025 258.391 132.844 266.577C133.147 267.427 133.398 268.296 133.594 269.178L107.211 306.987C107.107 307.043 107.013 307.105 106.909 307.162L105.925 308.72C105.7 308.472 105.471 308.211 105.246 307.964C105.115 307.821 104.99 307.67 104.858 307.527C104.773 307.429 104.687 307.331 104.605 307.247C104.576 307.215 104.548 307.182 104.528 307.155C104.445 307.072 104.377 306.986 104.302 306.908C103.023 305.452 101.751 303.983 100.487 302.504C100.478 302.498 100.478 302.498 100.476 302.483C90.8748 291.184 82.1333 278.985 75.522 265.847C75.3233 265.452 75.1156 265.051 74.9288 264.638C71.9816 258.699 69.5249 252.53 67.5832 246.191C66.5311 242.717 65.6557 239.192 64.9602 235.629C63.1809 226.42 62.8617 216.989 64.0144 207.681C66.3148 189.125 74.5261 171.512 89.0144 160.07C89.3851 159.777 89.7503 159.493 90.1298 159.207Z" fill="#579F3E"/>
<path d="M90.5505 159.626C81.2455 180.834 78.658 205.151 83.6863 227.793C84.7734 232.688 86.3024 237.559 88.8672 241.896C91.3997 246.105 95.0134 249.559 99.3329 251.899C103.317 254.162 107.653 256.016 111.017 259.207C114.563 262.571 116.165 267.186 116.069 272.02C115.951 277.935 113.715 283.455 111.34 288.777C108.703 294.686 105.871 300.782 106.092 307.402C106.119 308.204 104.872 308.199 104.845 307.398C104.46 295.88 112.726 286.567 114.503 275.499C115.332 270.335 114.61 264.889 110.953 260.917C107.756 257.443 103.285 255.528 99.2317 253.272C94.9757 250.902 91.3458 247.963 88.634 243.872C85.86 239.687 84.1373 234.865 82.9298 230.02C80.2735 219.011 79.3653 207.653 80.2385 196.362C81.1635 183.471 84.2878 170.832 89.4761 158.994C89.7975 158.261 90.8698 158.899 90.5505 159.626L90.5505 159.626Z" fill="white"/>
<path d="M81.6637 220.519C77.7114 220.826 73.7788 219.718 70.5682 217.394C67.3576 215.069 65.078 211.68 64.1365 207.83C63.9487 207.051 65.1517 206.723 65.3397 207.503C66.2098 211.089 68.3336 214.246 71.3277 216.405C74.3219 218.563 77.9892 219.58 81.6678 219.273C82.4673 219.207 82.4586 220.454 81.6637 220.519Z" fill="white"/>
<path d="M97.162 251.017C102.486 244.911 105.313 237.022 105.077 228.925C105.053 228.123 106.3 228.128 106.324 228.929C106.553 237.356 103.595 245.559 98.0406 251.901C97.5108 252.506 96.6351 251.618 97.1621 251.017L97.162 251.017Z" fill="white"/>
<path d="M82.6298 184.234C84.1837 184.434 85.763 184.245 87.2258 183.684C88.6886 183.123 89.9891 182.207 91.0105 181.02C91.5325 180.409 92.4077 181.297 91.8891 181.904C90.7545 183.211 89.317 184.22 87.7022 184.843C86.0874 185.467 84.3445 185.685 82.6257 185.48C82.462 185.474 82.3067 185.407 82.1913 185.29C82.0759 185.174 82.0091 185.019 82.0044 184.855C82.0058 184.69 82.0722 184.532 82.1893 184.416C82.3064 184.3 82.4647 184.234 82.6298 184.234V184.234Z" fill="white"/>
<path d="M331.153 161.728C334.818 141.464 328.727 118.47 312.099 106.314C313.168 128.683 306.288 150.708 292.676 168.493C287.401 175.334 280.822 182.392 281.078 191.025C281.238 196.397 284.173 201.384 288.025 205.132C291.878 208.88 296.612 211.571 301.289 214.22L302.021 215.344C315.597 199.856 327.487 181.992 331.153 161.728Z" fill="#579F3E"/>
<path d="M311.799 106.626C318.846 122.147 320.821 139.493 317.444 156.2C316.781 159.81 315.553 163.292 313.805 166.52C312.001 169.609 309.402 172.158 306.279 173.903C303.399 175.589 300.259 176.98 297.839 179.336C296.619 180.56 295.671 182.029 295.058 183.645C294.445 185.261 294.181 186.989 294.283 188.715C294.424 193.021 296.105 197.019 297.885 200.872C299.861 205.15 301.982 209.562 301.883 214.385C301.871 214.97 302.779 214.954 302.791 214.371C302.962 205.979 296.855 199.276 295.456 191.233C294.803 187.48 295.277 183.508 297.902 180.58C300.198 178.021 303.435 176.584 306.366 174.902C309.437 173.244 312.056 170.859 313.994 167.956C315.9 164.829 317.261 161.399 318.016 157.815C319.846 149.773 320.4 141.494 319.657 133.28C318.861 123.901 316.466 114.727 312.576 106.155C312.335 105.625 311.56 106.099 311.799 106.626L311.799 106.626Z" fill="white"/>
<path d="M318.848 150.885C321.729 151.07 324.583 150.226 326.899 148.503C329.215 146.78 330.842 144.29 331.492 141.478C331.621 140.909 330.742 140.681 330.612 141.251C330.013 143.871 328.496 146.19 326.336 147.79C324.176 149.39 321.515 150.166 318.834 149.977C318.251 149.937 318.269 150.844 318.848 150.885Z" fill="white"/>
<path d="M307.852 173.241C303.916 168.844 301.783 163.126 301.878 157.228C301.888 156.643 300.98 156.659 300.97 157.242C300.883 163.381 303.115 169.327 307.22 173.893C307.612 174.328 308.241 173.673 307.852 173.241Z" fill="white"/>
<path d="M317.801 124.47C316.671 124.631 315.519 124.508 314.449 124.113C313.378 123.719 312.422 123.064 311.667 122.209C311.281 121.769 310.653 122.424 311.036 122.861C311.875 123.802 312.931 124.524 314.113 124.962C315.295 125.401 316.566 125.544 317.816 125.378C317.935 125.372 318.047 125.321 318.13 125.236C318.213 125.15 318.26 125.036 318.262 124.917C318.26 124.797 318.21 124.682 318.123 124.599C318.037 124.515 317.921 124.469 317.801 124.47L317.801 124.47Z" fill="white"/>
<path d="M244.492 123.453C244.725 123.734 244.958 124.016 245.19 124.304C248.304 128.104 251.105 132.15 253.564 136.403C253.76 136.729 253.953 137.062 254.138 137.393C259.954 147.702 263.804 159.001 265.494 170.715C266.162 175.377 266.474 180.083 266.428 184.793C266.363 191.297 265.776 198.343 267.805 204.313C268.01 204.938 268.253 205.55 268.533 206.145L300.593 216.15C300.677 216.136 300.759 216.13 300.844 216.116L302.106 216.574C302.125 216.331 302.14 216.079 302.159 215.836C302.171 215.696 302.176 215.553 302.188 215.412C302.193 215.317 302.198 215.223 302.209 215.138C302.211 215.106 302.212 215.075 302.212 215.051C302.223 214.966 302.223 214.886 302.232 214.808C302.318 213.399 302.396 211.986 302.463 210.571C302.465 210.564 302.465 210.564 302.461 210.554C302.947 199.768 302.537 188.847 300.481 178.336C300.419 178.02 300.36 177.696 300.283 177.375C299.331 172.642 297.993 167.995 296.282 163.48C295.338 161.011 294.269 158.591 293.08 156.23C289.996 150.135 285.971 144.562 281.155 139.717C271.552 130.06 258.966 123.58 245.52 123.452C245.176 123.45 244.838 123.449 244.492 123.453Z" fill="#579F3E"/>
<path d="M244.437 123.882C259.412 132.034 271.436 144.695 278.802 160.067C280.447 163.348 281.564 166.868 282.112 170.497C282.532 174.049 281.992 177.648 280.549 180.922C279.266 184.001 277.596 187.002 277.083 190.339C276.846 192.051 276.974 193.794 277.458 195.453C277.942 197.113 278.771 198.651 279.892 199.968C282.598 203.321 286.349 205.501 290.09 207.507C294.245 209.733 298.595 211.98 301.422 215.89C301.764 216.364 302.479 215.805 302.137 215.332C297.22 208.529 288.306 206.853 282.345 201.273C279.564 198.669 277.55 195.212 277.883 191.295C278.174 187.869 279.893 184.773 281.22 181.667C282.674 178.494 283.329 175.014 283.128 171.53C282.766 167.885 281.787 164.328 280.232 161.012C276.849 153.49 272.305 146.546 266.764 140.434C260.48 133.425 253.043 127.541 244.774 123.039C244.262 122.76 243.929 123.605 244.437 123.882L244.437 123.882Z" fill="white"/>
<path d="M276.722 154.978C279.134 153.392 280.904 151.001 281.715 148.231C282.527 145.462 282.327 142.494 281.152 139.858C280.912 139.325 280.073 139.673 280.313 140.206C281.412 142.658 281.598 145.423 280.837 148C280.076 150.578 278.418 152.799 276.163 154.262C275.674 154.58 276.235 155.294 276.722 154.978Z" fill="white"/>
<path d="M281.406 179.446C275.616 178.304 270.469 175.023 266.992 170.256C266.648 169.784 265.933 170.342 266.276 170.814C269.904 175.768 275.267 179.172 281.295 180.347C281.869 180.459 281.978 179.557 281.406 179.446Z" fill="white"/>
<path d="M259.977 134.518C259.171 135.326 258.178 135.921 257.085 136.251C255.993 136.58 254.835 136.632 253.717 136.404C253.144 136.285 253.037 137.187 253.606 137.305C254.842 137.551 256.12 137.492 257.328 137.131C258.536 136.769 259.637 136.118 260.535 135.234C260.627 135.158 260.686 135.049 260.7 134.931C260.715 134.813 260.684 134.693 260.614 134.597C260.539 134.502 260.431 134.441 260.311 134.427C260.192 134.412 260.072 134.445 259.977 134.518L259.977 134.518Z" fill="white"/>
<path d="M80.7247 232.372C85.1632 232.372 89.4198 234.135 92.5583 237.272C95.6967 240.409 97.4599 244.665 97.4599 249.102V249.102C97.4593 252.982 96.1092 256.742 93.6409 259.737C91.1726 262.733 87.7395 264.777 83.9293 265.521V292.882H73.2473V232.372H80.7247Z" fill="#3F3D56"/>
<path d="M490.646 392.652V398.381C488.217 401.485 485.714 404.528 483.138 407.51C482.861 407.835 482.578 408.155 482.289 408.481C481.853 408.991 481.404 409.495 480.955 409.999V392.652H490.646Z" fill="#D22F2F"/>
<path d="M462.212 380.702C460.07 380.704 458.016 381.556 456.501 383.07C454.986 384.585 454.134 386.638 454.132 388.779V400.403C454.134 402.545 454.986 404.598 456.501 406.112C458.016 407.627 460.07 408.478 462.212 408.481H482.289C482.578 408.155 482.861 407.835 483.138 407.51C485.714 404.528 488.217 401.485 490.646 398.381C490.806 398.178 490.966 397.975 491.12 397.773C492.509 395.996 493.875 394.189 495.215 392.369C496.26 390.943 497.3 389.505 498.314 388.054C498.321 388.048 498.327 388.048 498.327 388.042C500.024 385.632 501.678 383.185 503.289 380.702H462.212Z" fill="#3F3D56"/>
<path d="M513.909 281.205C512.675 280.779 511.378 280.562 510.072 280.565H506.77C505.567 280.566 504.371 280.746 503.221 281.1C500.797 281.862 498.678 283.376 497.173 285.423C495.668 287.471 494.855 289.944 494.852 292.485V389.456C494.852 389.818 494.871 390.175 494.901 390.525C494.955 391.147 495.06 391.764 495.215 392.369C496.261 390.943 497.3 389.505 498.314 388.054C498.321 388.048 498.327 388.048 498.327 388.042C500.024 385.632 501.678 383.185 503.289 380.702C504.156 379.368 505.017 378.022 505.86 376.669C511.947 366.906 517.339 356.726 521.995 346.204V292.484C521.993 289.996 521.212 287.571 519.762 285.548C518.312 283.526 516.265 282.007 513.909 281.205Z" fill="#3F3D56"/>
<path d="M106.911 392.652V404.227C104.144 400.92 101.469 397.539 98.8863 394.084C98.5296 393.611 98.1791 393.131 97.8286 392.652H106.911Z" fill="#D22F2F"/>
<path d="M125.654 380.702H89.5393C90.6769 382.454 91.835 384.185 93.0137 385.896C94.5756 388.177 96.1805 390.429 97.8286 392.652C98.1791 393.131 98.5296 393.611 98.8862 394.084C101.475 397.539 104.15 400.92 106.911 404.227C107.428 404.854 107.95 405.475 108.479 406.096C109.156 406.895 109.842 407.69 110.539 408.481H125.654C127.796 408.478 129.849 407.626 131.362 406.112C132.876 404.597 133.727 402.544 133.728 400.403V388.779C133.727 386.638 132.876 384.585 131.363 383.071C129.849 381.557 127.796 380.705 125.654 380.702Z" fill="#3F3D56"/>
<path d="M86.5999 281.911C84.8974 281.029 83.008 280.567 81.0901 280.565H77.7941C76.2345 280.563 74.6899 280.87 73.2498 281.469C71.068 282.37 69.2024 283.897 67.889 285.858C66.5755 287.819 65.8731 290.125 65.8706 292.484V334.144C72.0796 350.461 80.0141 366.069 89.5393 380.702C90.6769 382.454 91.835 384.185 93.0136 385.896V292.484C93.012 290.305 92.4134 288.167 91.2828 286.303C90.1522 284.439 88.5327 282.921 86.5999 281.911Z" fill="#3F3D56"/>
<path d="M220.94 461.95L231.773 459.466L227.342 416.514L211.354 420.182L220.94 461.95Z" fill="#9E616A"/>
<path d="M230.795 424.685C230.573 423.928 230.423 423.152 230.346 422.367C230.256 421.44 230.075 420.523 229.805 419.632C229.497 418.82 229.116 418.038 228.667 417.296C228.452 416.902 228.225 416.509 228.022 416.109C227.817 415.71 227.641 415.297 227.493 414.874C221.153 396.156 212.304 370.719 206.167 355.831C202.557 347.071 180.358 344.157 159.414 343.413C156.862 343.321 154.328 343.26 151.85 343.229C150.996 343.217 150.147 343.204 149.304 343.198C147.152 343.186 145.055 343.186 143.038 343.211C142.774 343.211 142.509 343.211 142.245 343.217C140.775 343.229 139.351 343.249 137.971 343.278C128.489 343.463 121.522 343.893 120.28 343.973L109.217 337.02L107.059 335.662L106.831 337.02L105.091 347.384L102.121 365.07L109.568 367.16L114.401 368.512L143.038 376.54L149.126 378.249L149.163 378.261L159.414 378.243L187.442 378.194L188.795 381.778C188.309 382.532 187.99 383.381 187.858 384.268C187.726 385.155 187.784 386.06 188.029 386.923C188.274 387.786 188.7 388.587 189.278 389.273C189.857 389.958 190.575 390.513 191.384 390.9L192.436 391.398L205.245 425.281C205.284 428.346 206.241 431.328 207.993 433.844C208.209 434.157 208.442 434.465 208.688 434.766L208.971 435.104L213.897 444.737L216.83 444.06L229.313 441.202L229.375 441.079C229.381 441.061 229.541 440.722 229.774 440.132V440.114C230.752 437.674 232.917 431.004 230.795 424.685Z" fill="#2F2E41"/>
<path d="M261.228 464.807C260.761 462.742 259.891 460.79 258.667 459.063C257.443 457.336 255.889 455.868 254.095 454.743C252.301 453.619 250.302 452.86 248.213 452.511C246.125 452.162 243.988 452.23 241.925 452.71L233.273 448.806L230.85 450.509L220.802 457.554L219.972 457.744L217.279 458.359L220.999 474.569L261.351 465.317L261.228 464.807Z" fill="#2F2E41"/>
<path d="M207.704 439.813L204.046 469.467L203.923 470.438L203.381 474.858C201.272 473.997 199.169 473.106 197.091 472.19C195.148 471.335 193.219 470.454 191.304 469.546V439.819L207.704 439.813Z" fill="#9E616A"/>
<path d="M128.308 235.954C140.559 235.954 150.49 226.026 150.49 213.779C150.49 201.532 140.559 191.604 128.308 191.604C116.057 191.604 106.125 201.532 106.125 213.779C106.125 226.026 116.057 235.954 128.308 235.954Z" fill="#9E616A"/>
<path d="M210.06 451.13C209.445 450.287 208.805 449.408 208.768 448.566C208.627 445.597 208.479 442.659 208.326 439.782C208.215 437.772 208.104 435.786 207.993 433.844C207.981 433.598 207.963 433.352 207.95 433.112C207.76 429.897 208.713 426.504 209.629 423.216C209.93 422.14 210.232 421.052 210.502 419.964C211.179 417.539 211.463 415.022 211.345 412.507C209.771 392.597 202.736 373.872 199.581 370.719C194.785 365.924 173.096 354.847 159.414 348.11C156.985 346.911 154.808 345.854 153.025 344.993C151.444 344.225 150.172 343.616 149.304 343.198C148.64 342.885 148.21 342.682 148.062 342.608L147.989 342.571L143.038 343.125L142.245 343.217L137.879 343.708L109.475 346.893L105.091 347.385L98.8864 348.085L93.2843 348.712L93.0753 348.731L93.0384 348.94C93.0384 348.946 93.0261 348.989 93.0138 349.069C92.0504 355.145 92.0504 361.335 93.0138 367.412C93.7394 371.537 95.1107 375.729 97.5458 379.257C97.8779 379.737 98.2222 380.198 98.5912 380.64C98.6037 380.664 98.6203 380.685 98.6404 380.702C98.7203 380.8 98.8003 380.899 98.8864 380.997V381.003C101.672 384.241 105.411 386.516 109.568 387.501C110.183 387.667 110.81 387.802 111.456 387.913C118.337 389.13 126.109 390.248 133.728 391.232C136.883 391.638 140.013 392.019 143.038 392.375C149.095 393.088 154.753 393.691 159.414 394.17C165.945 394.834 170.532 395.246 171.553 395.332L182.96 448.529C182.064 450.043 181.707 451.814 181.946 453.556C182.185 455.298 183.006 456.908 184.276 458.125L185.21 459.029L186.293 464.094L189.859 468.864L190.308 469.467H206.044L206.13 469.362C206.186 469.288 211.72 462.182 211.345 453.718C211.308 452.845 210.699 452.015 210.06 451.13Z" fill="#2F2E41"/>
<path d="M209.63 272.841C208.438 272.516 207.19 272.455 205.972 272.664C204.755 272.873 203.598 273.346 202.583 274.05C201.568 274.755 200.72 275.673 200.098 276.74C199.477 277.807 199.097 278.998 198.986 280.228L180.555 285.986L181.324 298.036L207.237 289.539C209.317 289.589 211.342 288.875 212.93 287.532C214.518 286.189 215.558 284.31 215.853 282.252C216.148 280.194 215.677 278.099 214.53 276.365C213.383 274.63 211.64 273.377 209.63 272.841Z" fill="#9E616A"/>
<path d="M197.604 292.782L183.829 297.993L183.477 298.677C183.059 299.487 182.485 300.208 181.788 300.797C181.092 301.387 180.286 301.833 179.416 302.111C178.547 302.389 177.631 302.493 176.722 302.417C175.813 302.341 174.927 302.087 174.116 301.669L143.154 313.383C143.154 313.383 129.327 299.551 119.482 287.207L122.838 266.578C123.615 261.791 125.266 257.189 127.71 253C147.899 257.425 159.488 285.638 159.488 285.638L195.873 278.698L197.604 292.782Z" fill="#70A2CF"/>
<path d="M125.156 234.769C119.602 236.268 113.48 234.275 109.146 230.494C104.812 226.712 102.101 221.355 100.539 215.82C99.3952 211.767 98.8528 207.268 100.658 203.463C102.463 199.658 107.322 197.09 111.071 199.013C108.758 196.319 109.914 191.865 112.614 189.561C115.315 187.257 119.024 186.596 122.556 186.235C127.682 185.711 132.977 185.653 137.854 187.313C142.732 188.973 147.164 192.602 148.691 197.522C150.25 198.248 152.006 198.436 153.684 198.057C155.361 197.679 156.866 196.754 157.962 195.429C158.244 196.951 158.017 198.524 157.316 199.903C156.615 201.283 155.478 202.393 154.082 203.062L161.555 200.64C162.841 203.36 160.589 206.726 157.709 207.597C154.828 208.468 151.72 207.516 148.986 206.258C146.253 204.999 143.605 203.409 140.636 202.918C137.668 202.427 134.18 203.381 132.807 206.057C132.088 207.459 132.051 209.101 131.633 210.62C131.215 212.139 130.158 213.714 128.587 213.838C127.594 213.917 126.622 213.388 125.632 213.496C125.025 213.616 124.465 213.91 124.023 214.342C123.58 214.775 123.273 215.327 123.139 215.931C122.893 217.144 122.89 218.394 123.13 219.607L125.029 234.113L125.156 234.769Z" fill="#2F2E41"/>
<path d="M153.025 344.993L151.85 343.229L143.278 330.375L143.106 330.123L145.756 316.378L146.58 312.088L148.382 302.75L147.859 281.376L147.484 266.255L147.429 263.882L145.529 258.091C144.628 255.383 143.181 252.889 141.277 250.763C139.373 248.636 137.053 246.923 134.46 245.729L121.67 239.877C120.164 239.192 118.448 239.133 116.9 239.713C115.351 240.292 114.095 241.463 113.41 242.968C113.353 243.094 113.3 243.221 113.251 243.35C111.499 243.59 103.892 244.869 97.4413 249.872C92.9223 253.309 89.7676 258.236 88.5371 263.777C88.5248 263.82 88.5187 263.863 88.5064 263.906C87.6516 267.724 87.0121 273.748 86.6001 281.911C86.3233 287.308 86.1491 293.632 86.0774 300.881C85.9626 312.965 86.6426 325.044 88.1128 337.039C88.2542 338.182 88.4018 339.319 88.5555 340.463C88.6847 341.422 89.6071 342.338 90.4987 343.217C91.3166 344.022 92.159 344.858 92.2759 345.614C92.3804 346.278 91.9561 346.972 91.4519 347.698C91.3904 347.79 91.3227 347.882 91.2612 347.974C90.634 348.866 89.9883 349.794 90.1544 350.771C90.5418 352.972 90.7693 355.21 90.9845 357.373C91.2249 360.353 91.6562 363.314 92.2759 366.238C92.4911 367.135 92.7371 368.039 93.0138 368.942C93.6595 371.063 94.4404 373.178 95.2029 375.243C95.8609 377.038 96.5435 378.882 97.1215 380.702C97.2322 381.04 97.3367 381.372 97.4351 381.704L97.4843 381.876L97.6627 381.907H97.675C97.9172 381.475 98.2059 381.071 98.5359 380.702C98.5508 380.678 98.5695 380.658 98.5912 380.64C98.6773 380.536 98.7757 380.425 98.8864 380.308C100.233 378.839 103.16 376.202 109.568 371.758C111.001 370.768 112.605 369.692 114.401 368.512C120.987 364.203 130.186 358.591 143.038 351.343C146.261 349.524 149.719 347.599 153.412 345.571L153.025 344.993Z" fill="#70A2CF"/>
<path d="M222.001 480.218C220.508 478.719 218.732 477.53 216.776 476.721C214.82 475.912 212.723 475.498 210.607 475.503L203.922 470.438L203.043 469.768L197.091 472.19C199.169 473.106 201.272 473.997 203.381 474.858C209.98 477.55 216.717 479.956 223.594 482.074C223.111 481.416 222.578 480.796 222.001 480.218Z" fill="#2F2E41"/>
<path d="M370.465 461.532L362.093 457.529L373.593 422.549L385.949 428.456L370.465 461.532Z" fill="#FFB6B6"/>
<path d="M426.589 455.894C424.154 457.412 421.688 458.887 419.191 460.32V460.338L419.154 460.344L419.142 460.35L418.195 460.584L416.836 456.994L413.7 448.714L405.152 426.154L418.441 422.877L419.191 425.92L424.812 448.708L426.423 455.224L426.589 455.894Z" fill="#FFB6B6"/>
<path d="M392.697 309.493C393.891 311.431 395.796 312.826 398.005 313.38C400.214 313.934 402.552 313.603 404.52 312.458C404.916 312.218 405.291 311.946 405.642 311.645L432.109 326.828L430.959 311.242L406.002 299.213C404.644 297.85 402.872 296.975 400.963 296.727C399.054 296.478 397.117 296.87 395.455 297.84C393.552 298.982 392.181 300.833 391.644 302.985C391.106 305.137 391.446 307.415 392.588 309.317C392.624 309.376 392.66 309.435 392.697 309.493Z" fill="#FFB6B6"/>
<path d="M420.73 321.111L425.408 323.961L446.42 336.769C447.799 337.632 449.335 338.215 450.939 338.484C452.544 338.753 454.186 338.704 455.771 338.339C457.357 337.974 458.855 337.301 460.18 336.357C461.505 335.413 462.631 334.218 463.494 332.839L463.501 332.828C465.056 330.266 465.607 327.218 465.046 324.274L455.707 277.634C455.362 275.803 454.626 274.068 453.548 272.548C452.471 271.027 451.078 269.758 449.464 268.825C447.85 267.893 446.054 267.32 444.199 267.145C442.343 266.97 440.472 267.198 438.713 267.813C435.755 268.852 433.305 270.978 431.86 273.759C430.415 276.539 430.085 279.766 430.935 282.782L440.701 315.881L425.732 308.905L420.73 321.111Z" fill="#70A2CF"/>
<path d="M506.886 367.098C506.88 367.08 506.868 367.012 506.85 366.908L506.831 366.84C506.788 366.619 506.739 366.373 506.684 366.102C505.429 359.874 503.817 353.723 501.856 347.679C500.695 343.978 499.155 340.407 497.263 337.02C497.201 336.91 497.134 336.799 497.066 336.688L496.839 336.32L494.926 337.02L494.852 337.045L465.778 347.698L457.372 350.778L457.108 350.876L455.675 356.716L435.573 354.115L419.191 351.995L414.487 351.386C412.448 351.12 410.376 351.263 408.392 351.805C406.408 352.348 404.553 353.279 402.932 354.546C401.242 355.856 399.829 357.49 398.776 359.351C397.724 361.213 397.053 363.266 396.802 365.389C396.74 365.857 396.703 366.33 396.685 366.797L395.264 419.767V419.835L395.922 421.15L409.666 448.714H419.191L424.812 448.708H429.381L419.88 424.678L420.095 424.353C420.989 422.983 421.553 421.424 421.741 419.8C421.93 418.175 421.739 416.529 421.184 414.991L422.254 411.892C424.473 405.493 423.422 402.42 422.094 398.535C420.901 395.376 420.2 392.052 420.015 388.681L419.794 384.298C425.371 385.275 430.567 386.363 435.573 387.458C437.246 387.82 438.902 388.187 440.542 388.558C445.209 389.597 449.716 390.599 454.132 391.435C463.073 393.138 471.639 394.176 480.438 393.531C480.61 393.519 480.783 393.506 480.955 393.488C483.095 393.316 485.247 393.039 487.424 392.652C488.648 392.431 489.877 392.179 491.12 391.883C491.464 391.797 491.814 391.711 492.159 391.625C493.115 391.373 494.036 391.004 494.901 390.525C496.132 389.838 497.278 389.009 498.314 388.054C498.32 388.048 498.327 388.048 498.327 388.042C500.024 385.632 501.678 383.185 503.289 380.702C504.156 379.368 505.017 378.022 505.86 376.669C507.089 373.295 507.557 369.889 506.886 367.098Z" fill="#2F2E41"/>
<path d="M507.089 357.146C506.997 356.753 506.88 356.353 506.757 355.966C505.781 353.033 504.644 350.156 503.351 347.348C501.899 344.151 500.159 340.727 498.087 337.02C497.084 335.225 496.006 333.359 494.852 331.42C494.274 330.449 493.674 329.459 493.05 328.451C493.026 328.405 492.999 328.36 492.971 328.316L492.792 328.021L464.026 331.869L453.314 333.301L452.674 338.637L452.52 339.959C452.514 339.959 452.514 339.959 452.52 339.965L452.09 343.567V343.573L451.518 348.331L451.469 348.325L435.573 346.266L419.191 344.145L410.392 343.008C408.352 342.742 406.28 342.885 404.297 343.427C402.313 343.969 400.457 344.901 398.837 346.167C397.146 347.478 395.734 349.111 394.681 350.973C393.628 352.835 392.957 354.887 392.706 357.011C392.651 357.441 392.614 357.884 392.595 358.32L384.294 377.985C379.326 389.745 376.163 402.188 374.91 414.892L368.822 434.348L369.689 434.428L382.591 435.627L385.997 435.946L393.499 424.998C394.354 423.75 395.166 422.466 395.922 421.15C397.168 419.002 398.275 416.776 399.237 414.487L415.465 375.883C416.719 376.098 417.961 376.303 419.191 376.497C424.879 377.419 430.34 378.171 435.573 378.753C452.588 380.653 467.322 380.8 480.438 379.19C484.122 378.741 487.682 378.151 491.12 377.419C492.38 377.155 493.624 376.87 494.852 376.565C495.141 376.497 495.424 376.43 495.707 376.356C498.248 375.701 500.585 374.419 502.502 372.628C504.42 370.836 505.858 368.593 506.684 366.102C507.67 363.217 507.81 360.109 507.089 357.146Z" fill="#2F2E41"/>
<path d="M445.919 241.046C456.908 241.046 465.817 231.942 465.817 220.711C465.817 209.481 456.908 200.377 445.919 200.377C434.929 200.377 426.021 209.481 426.021 220.711C426.021 231.942 434.929 241.046 445.919 241.046Z" fill="#FFB6B6"/>
<path d="M493.167 329.134C493.137 328.906 493.1 328.679 493.051 328.451C492.577 325.956 491.347 323.509 490.16 321.136C489.029 318.874 487.953 316.735 487.51 314.608C487.073 312.512 487.332 310.41 487.584 308.381C487.854 306.18 488.137 303.906 487.504 301.699C484.292 290.429 479.88 279.535 474.344 269.205C472.948 264.663 470.27 260.62 466.633 257.56C462.995 254.501 458.552 252.555 453.836 251.956C454.387 250.929 454.616 249.759 454.494 248.6C454.417 247.851 454.192 247.124 453.832 246.463C453.472 245.801 452.985 245.218 452.397 244.746C451.833 244.292 451.185 243.953 450.489 243.751C449.794 243.548 449.065 243.485 448.345 243.566L439.097 244.604C437.614 244.791 436.264 245.554 435.342 246.73C434.42 247.905 433.999 249.397 434.171 250.881C434.223 251.338 434.326 251.787 434.478 252.221C425.894 263.15 421.485 273.109 421.079 282.526V282.532C421.03 283.62 421.036 284.709 421.098 285.796C421.292 289.312 422.056 292.773 423.36 296.044C424.9 299.822 426.962 303.367 429.485 306.574C430.002 307.225 430.537 307.865 431.09 308.492C431.607 309.106 432.185 309.752 432.824 310.428L434.442 312.961L435.948 315.327L444.004 333.91L448.105 333.775L448.677 337.863L448.812 338.815L451.469 348.325L451.666 349.038L455.3 347.311L476.982 337.02L493.192 329.324L493.167 329.134Z" fill="#70A2CF"/>
<path opacity="0.2" d="M423.604 295.945C425.453 300.472 428.052 304.655 431.292 308.318C431.847 308.98 432.433 309.631 433.046 310.283L436.194 315.22C447.797 306.526 457.198 272.293 457.198 272.293L444.106 269.748L423.604 295.945Z" fill="black"/>
<path d="M415.678 242.945C416.824 244.914 417.157 247.252 416.605 249.462C416.054 251.672 414.661 253.58 412.724 254.779C412.326 255.016 411.91 255.221 411.479 255.39L412.405 285.881L399.196 277.569L400.341 249.888C399.779 248.046 399.843 246.07 400.523 244.268C401.202 242.466 402.46 240.939 404.098 239.927C405.993 238.781 408.265 238.435 410.415 238.964C412.564 239.493 414.416 240.854 415.562 242.748C415.602 242.813 415.64 242.879 415.678 242.945Z" fill="#FFB6B6"/>
<path d="M413.566 274.371L399.04 276.436L399.665 306.507C399.701 308.652 400.285 310.752 401.362 312.608C402.439 314.464 403.973 316.014 405.818 317.11C408.072 318.436 410.696 318.993 413.294 318.698C415.892 318.403 418.324 317.272 420.223 315.475L454.518 282.5C456.931 280.212 458.375 277.087 458.553 273.767C458.731 270.447 457.63 267.185 455.476 264.651C453.365 262.154 450.349 260.597 447.09 260.323C443.831 260.049 440.596 261.08 438.098 263.19C438 263.272 437.903 263.356 437.808 263.442C437.469 263.745 437.147 264.066 436.843 264.403L414.198 290.445L413.566 274.371Z" fill="#70A2CF"/>
<path d="M426.958 455.125L426.423 455.224L419.191 456.558L416.836 456.994L413.128 457.676L414.444 462.981C416.024 462.127 417.586 461.248 419.142 460.35L419.154 460.344L419.191 460.338V460.32C421.688 458.893 424.154 457.418 426.589 455.894C426.761 455.789 426.933 455.685 427.105 455.568L426.958 455.125Z" fill="#2F2E41"/>
<path d="M373.139 455.82L364.081 451.48L362.661 450.798L360.392 456.367L344.551 459.852C343.768 460.024 343.06 460.441 342.531 461.044C342.002 461.646 341.68 462.402 341.611 463.201C341.542 463.999 341.731 464.799 342.149 465.483C342.568 466.167 343.194 466.699 343.936 467.001L359.414 473.315L364.327 468.895L363.122 474.827L368.951 477.206L375.341 456.877L373.139 455.82Z" fill="#2F2E41"/>
<path d="M499.164 211.892C495.782 207.949 494.174 202.718 491.47 198.241C488.766 193.763 484.061 189.756 479.09 190.798C475.664 191.516 473.015 194.539 471.675 197.909C470.334 201.279 470.083 204.995 469.848 208.636C469.931 201.154 465 193.901 458.208 191.513C451.416 189.126 443.287 191.789 439.019 197.8C437.156 196.074 434.725 195.091 432.186 195.038C429.647 194.985 427.177 195.865 425.243 197.511C421.426 200.922 420.581 207.414 423.388 211.764C426.196 216.115 432.277 217.736 436.738 215.323L438.316 216.773C437.428 219.878 439.15 223.545 442.044 224.713C444.391 225.661 447.705 225.503 448.583 227.966C449.197 229.686 448.05 231.522 446.829 232.844C445.609 234.166 444.16 235.532 444.014 237.361C443.793 240.121 446.646 242.055 449.24 242.637C455.495 244.042 462.435 241.146 466.04 235.628C466.109 235.522 466.185 235.415 466.266 235.309C468.289 232.723 469.763 229.752 470.598 226.578C471.434 223.404 471.613 220.093 471.125 216.847C470.922 215.571 471.126 214.623 472.006 214.321C475.808 213.015 486.459 215.755 489.683 218.232C492.907 220.708 495.488 223.985 498.593 226.621C501.699 229.257 505.656 231.291 509.598 230.573C512.756 229.998 515.442 227.706 517.249 224.942C519.056 222.178 520.096 218.956 521.027 215.754C514.045 219.786 504.488 218.098 499.164 211.892Z" fill="#2F2E41"/>
<path d="M435.571 333.102V450.021C433.345 451.551 431.09 453.041 428.806 454.49V340.854C428.806 337.559 427.699 334.885 426.34 334.879H323.961C322.596 334.885 321.495 337.559 321.489 340.854V491.741C320.124 491.876 318.758 492.006 317.393 492.116C316.828 492.165 316.256 492.208 315.69 492.251C315.364 491.649 315.044 491.04 314.724 490.426V333.102C314.724 332.192 314.761 331.276 314.823 330.373C315.376 322.701 318.125 317.095 321.341 317.083H428.954C429.343 317.085 429.728 317.167 430.085 317.323C432.779 318.466 434.906 323.482 435.441 329.967C435.528 331 435.577 332.051 435.571 333.102Z" fill="#C4C4C4"/>
<path d="M271.304 333.102V491.274C271.212 491.422 271.12 491.563 271.027 491.711C268.715 491.477 266.413 491.208 264.122 490.905V340.854C264.122 337.559 262.947 334.885 261.502 334.879H152.838C151.393 334.885 150.218 337.559 150.218 340.854V445.023C147.789 443.234 145.395 441.4 143.036 439.521V333.102C143.036 332.192 143.073 331.276 143.14 330.373C143.725 322.701 146.646 317.095 150.065 317.083H264.276C264.687 317.084 265.094 317.165 265.475 317.323C268.334 318.466 270.597 323.482 271.169 329.967C271.261 331 271.304 332.051 271.304 333.102Z" fill="#C4C4C4"/>
<path d="M234.887 280.538L242.009 311.861L246.559 316.844H249.843L236.312 259.893L235.643 269.568V269.575L234.887 280.538Z" fill="#3F3D56"/>
<path d="M258.602 318.444C258.581 318.395 258.555 318.35 258.522 318.309C258.457 318.161 258.363 318.027 258.245 317.915L257.415 317.085L253.049 312.715C252.729 312.401 252.299 312.225 251.85 312.223H251.832L248.751 312.241L246.101 312.26L242.399 312.284L217.186 312.444L200.614 312.549C200.165 312.554 199.737 312.736 199.42 313.054C199.104 313.373 198.925 313.803 198.923 314.251C198.926 314.5 198.98 314.745 199.083 314.971L199.403 315.653L200.073 317.085L200.946 318.96L201.377 319.882C201.514 320.176 201.732 320.424 202.005 320.598C202.279 320.773 202.596 320.865 202.92 320.866H257.04C257.325 320.86 257.604 320.785 257.853 320.646C258.101 320.508 258.312 320.31 258.467 320.071C258.621 319.831 258.714 319.558 258.738 319.274C258.761 318.99 258.715 318.705 258.602 318.444H258.602Z" fill="#3F3D56"/>
<path opacity="0.17" d="M200.947 318.959L201.375 319.884C201.514 320.177 201.732 320.424 202.006 320.598C202.279 320.772 202.596 320.865 202.92 320.866H257.042C257.327 320.861 257.606 320.786 257.854 320.648C258.103 320.509 258.314 320.311 258.468 320.072C258.622 319.833 258.715 319.559 258.738 319.276C258.762 318.992 258.715 318.707 258.602 318.446C258.583 318.397 258.556 318.352 258.523 318.311L200.947 318.959Z" fill="black"/>
<path opacity="0.17" d="M235.643 269.568V269.575L247.229 316.844H249.843L236.312 259.893L235.643 269.568Z" fill="black"/>
<path d="M253.818 137.288L252.121 137.06C251.655 137 251.184 137.126 250.811 137.411L249.796 138.191L238.5 152.317C238.127 152.606 237.884 153.03 237.824 153.498L237.19 158.305L221.423 278.229C221.367 278.674 221.479 279.123 221.737 279.489L229.165 299.959L229.387 300.279L229.866 300.961C230.113 301.308 230.475 301.556 230.887 301.662L231.963 301.933C232.208 301.994 232.462 302.002 232.71 301.958C232.959 301.913 233.194 301.817 233.402 301.674C233.611 301.534 233.787 301.351 233.919 301.136C234.05 300.922 234.134 300.682 234.165 300.433L236.089 285.815V285.809L237.319 276.428L238.359 268.517V268.511L255.355 139.279C255.417 138.813 255.29 138.341 255.003 137.968C254.717 137.594 254.293 137.35 253.827 137.289L253.818 137.288Z" fill="#3F3D56"/>
<path opacity="0.17" d="M249.794 138.192L229.164 299.962L229.388 300.279L229.866 300.959C230.113 301.306 230.475 301.555 230.887 301.66L231.965 301.931C232.209 301.992 232.463 302 232.71 301.956C232.958 301.911 233.193 301.815 233.401 301.674C233.609 301.532 233.784 301.349 233.916 301.135C234.048 300.921 234.133 300.682 234.166 300.433L255.354 139.281C255.415 138.814 255.288 138.34 255 137.966C254.713 137.592 254.288 137.347 253.82 137.285L252.119 137.061C251.888 137.03 251.653 137.045 251.428 137.106C251.203 137.166 250.993 137.271 250.808 137.413L249.794 138.192Z" fill="black"/>
<path d="M249.186 142.818L238.238 158.439L225.226 257.408L232.281 271.398L249.186 142.818Z" fill="white"/>
<path d="M355.826 280.538L348.705 311.861L344.154 316.844H340.871L354.402 259.893L355.071 269.568V269.575L355.826 280.538Z" fill="#3F3D56"/>
<path d="M390.099 312.549L348.321 312.284L344.613 312.26L341.968 312.241L338.888 312.223H338.863C338.416 312.224 337.987 312.4 337.67 312.715L332.468 317.915C332.352 318.029 332.259 318.162 332.191 318.309C332.158 318.35 332.132 318.395 332.111 318.444C331.998 318.705 331.952 318.99 331.975 319.274C331.999 319.558 332.092 319.831 332.246 320.071C332.401 320.31 332.612 320.508 332.86 320.646C333.109 320.785 333.388 320.86 333.673 320.866H387.793C388.118 320.865 388.436 320.772 388.71 320.598C388.984 320.424 389.203 320.176 389.343 319.882L389.767 318.96L390.64 317.085L391.63 314.971C391.736 314.746 391.79 314.5 391.79 314.251C391.788 313.803 391.609 313.373 391.293 313.054C390.976 312.736 390.548 312.554 390.099 312.549Z" fill="#3F3D56"/>
<path opacity="0.17" d="M389.767 318.959L389.339 319.884C389.2 320.177 388.982 320.424 388.708 320.598C388.435 320.772 388.118 320.865 387.794 320.866H333.672C333.387 320.861 333.108 320.786 332.86 320.648C332.611 320.509 332.4 320.311 332.246 320.072C332.092 319.833 331.999 319.559 331.976 319.276C331.952 318.992 331.999 318.707 332.112 318.446C332.131 318.397 332.158 318.352 332.191 318.311L389.767 318.959Z" fill="black"/>
<path opacity="0.17" d="M355.071 269.568V269.575L343.485 316.844H340.871L354.402 259.893L355.071 269.568Z" fill="black"/>
<path d="M369.29 278.229L352.889 153.498C352.829 153.03 352.586 152.606 352.213 152.317L340.923 138.191L339.908 137.411C339.532 137.126 339.06 137 338.592 137.06L336.895 137.288C336.427 137.348 336.002 137.592 335.714 137.965C335.425 138.339 335.297 138.811 335.358 139.279L352.354 268.517V268.523L353.394 276.428L354.63 285.815V285.827L356.548 300.433C356.579 300.683 356.663 300.923 356.796 301.138C356.929 301.352 357.106 301.535 357.317 301.674C357.524 301.817 357.758 301.913 358.005 301.958C358.253 302.002 358.506 301.994 358.75 301.932L359.826 301.662C360.238 301.556 360.6 301.308 360.847 300.961L361.326 300.279L361.548 299.959L368.976 279.489C369.237 279.124 369.349 278.674 369.29 278.229Z" fill="#3F3D56"/>
<path opacity="0.17" d="M340.92 138.192L361.55 299.962L361.325 300.279L360.847 300.959C360.601 301.306 360.239 301.555 359.826 301.66L358.749 301.931C358.505 301.992 358.251 302 358.003 301.956C357.756 301.911 357.521 301.815 357.313 301.674C357.105 301.532 356.93 301.349 356.798 301.135C356.666 300.921 356.581 300.682 356.548 300.433L335.36 139.281C335.299 138.814 335.426 138.34 335.714 137.966C336.001 137.592 336.425 137.347 336.893 137.285L338.595 137.061C338.826 137.03 339.061 137.045 339.286 137.106C339.511 137.166 339.721 137.271 339.905 137.413L340.92 138.192Z" fill="black"/>
<path d="M341.528 142.818L352.476 158.439L365.488 257.408L358.433 271.398L341.528 142.818Z" fill="white"/>
<path d="M138.051 342.356C138.053 342.665 138.026 342.974 137.971 343.278C137.947 343.426 137.916 343.567 137.879 343.709C137.579 344.852 136.909 345.863 135.974 346.585C135.038 347.307 133.889 347.698 132.707 347.698H109.568V402.869C109.569 404.035 109.186 405.168 108.479 406.096C107.95 405.475 107.428 404.854 106.911 404.227C104.144 400.92 101.469 397.539 98.8862 394.084V347.698H88.5554C87.1779 347.697 85.854 347.164 84.8602 346.211C83.8665 345.257 83.2798 343.957 83.2226 342.581C83.1655 341.205 83.6423 339.86 84.5536 338.827C85.4648 337.795 86.7399 337.154 88.1126 337.039C88.2602 337.027 88.4078 337.021 88.5554 337.021H132.707C134.124 337.02 135.482 337.582 136.484 338.582C137.486 339.583 138.05 340.94 138.051 342.356Z" fill="#3F3D56"/>
<path d="M506.782 342.356C506.782 343.438 506.454 344.494 505.842 345.385C505.229 346.276 504.36 346.96 503.35 347.348C502.871 347.531 502.368 347.643 501.856 347.68C501.721 347.692 501.58 347.698 501.444 347.698H491.12V397.773C490.966 397.975 490.806 398.178 490.646 398.381C488.217 401.486 485.714 404.528 483.138 407.51C482.315 407.046 481.631 406.372 481.157 405.556C480.682 404.74 480.434 403.812 480.438 402.869V347.698H457.292C456.609 347.7 455.932 347.569 455.3 347.311C454.503 346.992 453.795 346.486 453.236 345.836C452.677 345.185 452.284 344.409 452.09 343.573V343.567C451.803 342.353 451.956 341.077 452.52 339.965C452.514 339.959 452.514 339.959 452.52 339.959C452.765 339.469 453.084 339.021 453.467 338.631C453.965 338.121 454.56 337.716 455.217 337.44C455.874 337.163 456.579 337.02 457.292 337.021H501.444C502.86 337.02 504.217 337.582 505.218 338.582C506.219 339.583 506.782 340.939 506.782 342.354L506.782 342.356Z" fill="#3F3D56"/>
<path d="M506.429 239.491C504.231 239.491 502.055 239.924 500.024 240.765C497.994 241.605 496.149 242.838 494.595 244.391C493.041 245.945 491.808 247.789 490.967 249.818C490.126 251.848 489.693 254.024 489.693 256.22V256.22C489.694 260.101 491.044 263.861 493.512 266.856C495.981 269.852 499.414 271.896 503.224 272.64V300.001H513.906V239.491H506.429Z" fill="#3F3D56"/>
<path d="M214.245 300.578C213.179 299.953 211.99 299.569 210.76 299.453C209.53 299.337 208.29 299.492 207.126 299.907C205.963 300.322 204.904 300.987 204.026 301.856C203.147 302.724 202.47 303.774 202.041 304.932L182.746 305.685L180.146 314.669L207.577 316.073C209.572 316.664 211.713 316.503 213.597 315.62C215.48 314.738 216.974 313.196 217.796 311.286C218.618 309.376 218.71 307.231 218.056 305.257C217.401 303.284 216.045 301.619 214.245 300.578H214.245Z" fill="#9E616A"/>
<path d="M198.395 317.042L178.574 316.795L176.066 316.761L135.74 316.253C135.74 316.253 124.789 305.81 115.254 295.057L116.59 285.394C117.894 275.91 122.6 267.223 129.833 260.949C143.49 270.071 151.41 288.127 151.41 288.127L164.689 294.067C174.035 294.485 183.141 297.151 191.236 301.839L195.603 304.368L198.395 317.042Z" fill="#70A2CF"/>
<path d="M260.668 490.428H332.16C327.284 491.141 322.362 491.705 317.396 492.119H275.433C270.464 491.707 265.543 491.143 260.668 490.428Z" fill="#579F3E"/>
<path d="M275.042 454.449C276.426 441.966 283.988 429.584 295.823 425.37C291.305 438.26 291.495 452.331 296.357 465.095C298.25 470.011 300.867 475.281 299.216 480.283C298.188 483.395 295.604 485.8 292.7 487.322C289.796 488.843 286.56 489.592 283.365 490.327L282.741 490.857C277.501 479.443 273.658 466.932 275.042 454.449Z" fill="#579F3E"/>
<path d="M295.944 425.604C289.124 433.452 284.951 443.248 284.017 453.602C283.777 455.827 283.889 458.076 284.349 460.267C284.866 462.386 285.942 464.328 287.464 465.892C288.854 467.378 290.447 468.737 291.452 470.535C291.952 471.463 292.251 472.486 292.328 473.538C292.405 474.589 292.259 475.645 291.899 476.636C291.067 479.128 289.388 481.173 287.678 483.116C285.778 485.274 283.771 487.484 282.989 490.321C282.894 490.664 282.366 490.497 282.461 490.154C283.821 485.219 288.558 482.363 290.775 477.904C291.81 475.824 292.224 473.419 291.198 471.252C290.302 469.356 288.66 467.953 287.239 466.46C285.732 464.957 284.616 463.108 283.989 461.074C283.418 458.914 283.22 456.673 283.402 454.446C283.732 449.427 284.849 444.491 286.712 439.818C288.81 434.474 291.806 429.528 295.572 425.194C295.805 424.925 296.176 425.337 295.944 425.604H295.944Z" fill="white"/>
<path d="M284.121 450.25C282.405 449.858 280.884 448.868 279.83 447.458C278.776 446.048 278.258 444.31 278.368 442.553C278.373 442.481 278.405 442.415 278.459 442.367C278.512 442.319 278.582 442.293 278.654 442.296C278.726 442.299 278.794 442.329 278.843 442.381C278.893 442.432 278.921 442.501 278.921 442.573C278.816 444.209 279.299 445.828 280.283 447.139C281.267 448.45 282.688 449.366 284.288 449.722C284.636 449.8 284.467 450.327 284.121 450.25H284.121Z" fill="white"/>
<path d="M286.66 465.231C289.725 463.345 291.967 460.374 292.938 456.909C293.034 456.566 293.562 456.733 293.466 457.076C292.449 460.679 290.11 463.767 286.915 465.722C286.611 465.908 286.357 465.416 286.66 465.231Z" fill="white"/>
<path d="M289.33 434.991C289.963 435.282 290.658 435.41 291.352 435.366C292.046 435.321 292.719 435.105 293.309 434.736C293.611 434.546 293.865 435.039 293.565 435.227C292.911 435.631 292.168 435.869 291.401 435.92C290.633 435.971 289.865 435.834 289.164 435.519C289.095 435.495 289.038 435.446 289.005 435.381C288.971 435.317 288.963 435.242 288.983 435.172C289.005 435.102 289.054 435.044 289.12 435.01C289.185 434.977 289.26 434.97 289.33 434.991L289.33 434.991Z" fill="white"/>
<path d="M332.361 447.144C332.176 447.268 331.991 447.392 331.805 447.521C329.323 449.2 326.982 451.079 324.804 453.137C324.633 453.294 324.463 453.455 324.297 453.616C319.103 458.631 314.886 464.566 311.86 471.12C310.658 473.73 309.657 476.426 308.864 479.187C307.77 483 306.887 487.222 304.662 490.359C304.434 490.688 304.185 491.004 303.918 491.303L283.436 491.577C283.389 491.554 283.342 491.536 283.295 491.513L282.478 491.561C282.509 491.416 282.544 491.266 282.575 491.121C282.593 491.037 282.615 490.952 282.632 490.868C282.645 490.812 282.659 490.755 282.667 490.704C282.672 490.685 282.676 490.666 282.681 490.652C282.689 490.601 282.703 490.554 282.712 490.507C282.906 489.668 283.107 488.829 283.314 487.99C283.313 487.985 283.313 487.985 283.318 487.981C284.833 481.572 287.104 475.365 290.081 469.491C290.173 469.317 290.264 469.138 290.364 468.964C291.745 466.363 293.336 463.879 295.121 461.537C296.103 460.258 297.149 459.029 298.255 457.856C301.118 454.829 304.44 452.271 308.099 450.277C315.393 446.301 323.878 444.702 331.761 446.966C331.962 447.024 332.159 447.082 332.361 447.144Z" fill="#579F3E"/>
<path d="M332.319 447.405C322.146 449.566 312.914 454.877 305.933 462.582C304.401 464.214 303.135 466.077 302.184 468.103C301.32 470.106 301.009 472.305 301.283 474.469C301.498 476.492 301.952 478.536 301.671 480.577C301.511 481.619 301.133 482.615 300.562 483.501C299.99 484.387 299.237 485.142 298.353 485.717C296.188 487.206 293.616 487.829 291.08 488.35C288.264 488.929 285.329 489.486 282.997 491.281C282.714 491.498 282.393 491.047 282.675 490.83C286.734 487.708 292.236 488.278 296.692 486.053C298.771 485.015 300.55 483.344 301.037 480.996C301.463 478.943 300.996 476.834 300.761 474.788C300.463 472.68 300.686 470.532 301.41 468.531C302.256 466.463 303.447 464.554 304.933 462.886C308.22 459.076 312.085 455.807 316.387 453.199C321.28 450.194 326.651 448.048 332.269 446.854C332.616 446.78 332.664 447.332 332.319 447.405H332.319Z" fill="white"/>
<path d="M308.035 459.968C306.901 458.622 306.282 456.916 306.29 455.156C306.297 453.396 306.931 451.696 308.077 450.36C308.309 450.09 308.739 450.439 308.506 450.709C307.437 451.951 306.847 453.535 306.844 455.174C306.84 456.813 307.422 458.4 308.486 459.647C308.717 459.918 308.264 460.238 308.035 459.968Z" fill="white"/>
<path d="M301.039 473.457C304.622 473.797 308.202 472.773 311.064 470.591C311.347 470.375 311.668 470.826 311.385 471.042C308.403 473.307 304.675 474.364 300.947 474.003C300.592 473.969 300.685 473.423 301.039 473.457V473.457Z" fill="white"/>
<path d="M321.384 450.92C321.714 451.533 322.191 452.053 322.773 452.436C323.354 452.818 324.021 453.05 324.715 453.111C325.07 453.141 324.976 453.687 324.623 453.657C323.857 453.586 323.121 453.329 322.478 452.908C321.834 452.487 321.304 451.915 320.933 451.242C320.893 451.181 320.877 451.107 320.889 451.036C320.901 450.964 320.94 450.9 320.998 450.855C321.058 450.813 321.132 450.796 321.204 450.809C321.276 450.821 321.341 450.861 321.384 450.92Z" fill="white"/>
<path d="M342.985 464.535C346.583 464.535 349.499 461.62 349.499 458.024C349.499 454.427 346.583 451.512 342.985 451.512C339.388 451.512 336.471 454.427 336.471 458.024C336.471 461.62 339.388 464.535 342.985 464.535Z" fill="white"/>
<path d="M364.252 483.552C363.852 483.669 363.446 483.785 363.04 483.896C359.357 484.929 355.647 485.873 351.91 486.73C351.48 485.862 351.249 484.908 351.235 483.94C351.22 482.971 351.422 482.011 351.825 481.131C352.229 480.25 352.824 479.47 353.567 478.848C354.31 478.227 355.183 477.779 356.122 477.537C357.06 477.295 358.041 477.266 358.992 477.452C359.943 477.637 360.841 478.032 361.62 478.608C362.399 479.185 363.039 479.928 363.495 480.783C363.95 481.638 364.209 482.584 364.252 483.552Z" fill="white"/>
<path d="M401.467 469.573C400.969 469.807 400.471 470.04 399.973 470.268C399.432 470.526 398.885 470.772 398.344 471.018C397.735 471.294 397.132 471.565 396.523 471.835C394.236 472.856 391.924 473.839 389.605 474.786C389.575 474.737 389.544 474.682 389.513 474.626C388.701 473.105 388.526 471.323 389.026 469.673C389.526 468.023 390.66 466.638 392.18 465.822C393.7 465.007 395.482 464.827 397.134 465.323C398.786 465.819 400.174 466.949 400.994 468.467C401.182 468.822 401.341 469.192 401.467 469.573Z" fill="white"/>
<path d="M365.96 448.552C369.557 448.552 372.474 445.637 372.474 442.04C372.474 438.444 369.557 435.529 365.96 435.529C362.362 435.529 359.446 438.444 359.446 442.04C359.446 445.637 362.362 448.552 365.96 448.552Z" fill="white"/>
<path d="M306.208 85.2622C267.891 95.3374 225.437 101.466 182.269 103.144C175.942 103.489 169.601 103.446 163.28 103.015C149.388 101.847 137.489 97.4827 124.238 95.0976C117.867 93.9542 110.771 93.1182 104.357 91.8827C105.839 90.0447 107.348 88.2292 108.883 86.4363C122.713 87.6043 136.758 91.4278 150.753 93.2043C174.545 96.2287 201.202 92.8539 219.238 84.5307C227.989 80.492 234.691 75.4514 243.411 71.3943C244.597 70.7856 245.882 70.3923 247.205 70.2325C249.966 69.9804 252.389 71.0931 254.363 72.0889C268.992 79.4716 290.232 85.4712 309.947 82.1702C311.416 83.3197 308.624 84.629 306.208 85.2622Z" fill="white"/>
<path d="M393.448 111.243C393.628 111.21 393.809 111.184 393.989 111.153C393.231 110.684 392.518 110.147 391.858 109.549L393.448 111.243Z" fill="white"/>
<path d="M511.465 125.809C503.231 126.466 494.954 126.956 486.634 127.278C480.308 127.619 473.967 127.576 467.645 127.149C453.754 125.975 441.855 121.616 428.603 119.231C416.459 117.049 401.7 115.998 393.989 111.154C413.919 107.705 434.568 114.725 455.119 117.338C471.743 119.381 488.594 118.55 504.935 114.879C507.21 118.457 509.387 122.1 511.465 125.809Z" fill="white"/>
<path d="M326.112 218.018C306.822 151.833 295.469 83.5915 295.469 14.6544V9.6582H289.06V14.6542C289.06 83.5915 277.706 151.833 258.417 218.018C257.484 221.223 257.012 224.543 257.014 227.88V227.88C257.014 229.142 257.262 230.391 257.745 231.557C258.229 232.723 258.937 233.783 259.829 234.675C260.722 235.568 261.782 236.276 262.948 236.759C264.115 237.242 265.365 237.49 266.627 237.49H279.446C279.446 239.173 279.777 240.839 280.422 242.394C281.066 243.948 282.01 245.361 283.2 246.551C284.391 247.741 285.804 248.685 287.359 249.329C288.914 249.973 290.581 250.304 292.264 250.304C293.948 250.304 295.614 249.973 297.17 249.329C298.725 248.685 300.138 247.741 301.328 246.551C302.519 245.361 303.463 243.948 304.107 242.394C304.751 240.839 305.083 239.173 305.083 237.49H315.057V265.108C313.65 265.149 312.312 265.727 311.318 266.723C310.324 267.719 309.749 269.058 309.711 270.464C309.673 271.871 310.175 273.239 311.114 274.287C312.053 275.335 313.358 275.984 314.76 276.101C316.163 276.218 317.558 275.794 318.657 274.915C319.757 274.037 320.478 272.771 320.674 271.377C320.869 269.984 320.523 268.568 319.708 267.422C318.892 266.275 317.668 265.484 316.287 265.211V237.49H317.901C320.451 237.49 322.896 236.478 324.699 234.675C326.502 232.873 327.515 230.429 327.515 227.88V227.88C327.517 224.543 327.045 221.222 326.112 218.018Z" fill="white"/>
</g>
<defs>
<clipPath id="clip0_8_1218">
<rect width="543" height="493" fill="white"/>
</clipPath>
</defs>
</svg>
