<svg width="469" height="418" viewBox="0 0 469 418" fill="none" xmlns="http://www.w3.org/2000/svg">
<path d="M383.722 79.3403H368.126V94.5155H383.722V79.3403Z" fill="#FFF4DE"/>
<path d="M376.762 77.467H375.086V81.2778H376.762V77.467Z" fill="#7B688A"/>
<path d="M358.438 79.3403V110.162C358.438 111.538 357.876 112.859 356.876 113.833C355.875 114.806 354.518 115.353 353.103 115.353H325.682C327.051 115.288 328.342 114.712 329.287 113.746C330.232 112.779 330.758 111.496 330.757 110.162V79.3403H358.438Z" fill="#D6EAF2"/>
<path d="M344.581 77.467H342.905V81.2778H344.581V77.467Z" fill="#7B688A"/>
<path d="M336.063 86.7869H352.461" stroke="#639AD6" stroke-width="3" stroke-miterlimit="10"/>
<path d="M336.063 90.7439H352.461" stroke="#639AD6" stroke-width="3" stroke-miterlimit="10"/>
<path d="M336.063 94.7009H352.461" stroke="#639AD6" stroke-width="3" stroke-miterlimit="10"/>
<path d="M336.063 98.6543H352.461" stroke="#639AD6" stroke-width="3" stroke-miterlimit="10"/>
<path d="M336.063 102.611H352.461" stroke="#639AD6" stroke-width="3" stroke-miterlimit="10"/>
<path d="M254.738 278.447L234.075 376.109H236.051L263.703 278.472" fill="#D6EAF2"/>
<path d="M328.032 276.142L349.106 376.109H347.192L319.565 278.429" fill="#D6EAF2"/>
<path d="M299.328 278.447L319.994 376.109H318.018L290.366 278.472" fill="#D6EAF2"/>
<path d="M350.599 230.499L338.12 266.537C336.853 270.196 334.437 273.376 331.213 275.627C327.989 277.879 324.12 279.088 320.152 279.086H249.564C245.595 279.088 241.727 277.879 238.503 275.627C235.279 273.376 232.863 270.196 231.596 266.537L221.328 236.879C220.914 235.679 220.798 234.4 220.992 233.148C221.185 231.896 221.682 230.707 222.441 229.679C223.2 228.651 224.2 227.814 225.358 227.236C226.515 226.658 227.798 226.357 229.099 226.356H237.005C238.806 226.356 240.546 225.722 241.906 224.572C243.265 223.422 244.153 221.834 244.404 220.098L249.01 188.285C249.541 184.611 251.418 181.247 254.296 178.813C257.174 176.379 260.859 175.039 264.671 175.04H328.267C330.53 175.04 332.766 175.512 334.825 176.424C336.885 177.337 338.719 178.669 340.204 180.33C341.688 181.992 342.79 183.944 343.433 186.055C344.076 188.165 344.246 190.386 343.932 192.567L339.979 220.016C339.867 220.805 339.929 221.608 340.162 222.371C340.395 223.135 340.794 223.84 341.331 224.441C341.868 225.042 342.532 225.524 343.276 225.854C344.021 226.185 344.83 226.356 345.648 226.356H347.555C348.067 226.355 348.573 226.472 349.029 226.7C349.485 226.927 349.878 227.257 350.176 227.663C350.474 228.068 350.668 228.538 350.742 229.031C350.815 229.524 350.766 230.028 350.599 230.499Z" fill="#D6EAF2"/>
<path d="M345.274 225.971H340.049C336.631 225.944 333.292 226.966 330.505 228.89C327.718 230.815 325.625 233.545 324.523 236.693L315.583 260.871C314.44 264.182 312.257 267.061 309.342 269.102C306.428 271.143 302.929 272.242 299.339 272.246H234.276" stroke="white" stroke-width="3" stroke-miterlimit="10"/>
<path d="M424.542 212.131H53.4895V219.87H424.542V212.131Z" fill="#FFF4DE"/>
<path d="M414.264 349.98H368.061V355.408H414.264V349.98Z" fill="#F4E8CE"/>
<path d="M407.836 220.127H374.419V227.32H407.836V220.127Z" fill="#FFF4DE"/>
<path d="M420.773 376.748C419.978 376.749 419.208 376.479 418.598 375.984C417.987 375.489 417.575 374.801 417.432 374.04L391.895 238.866C391.861 238.694 391.765 238.538 391.625 238.426C391.486 238.314 391.31 238.253 391.129 238.253C390.948 238.253 390.773 238.314 390.633 238.426C390.493 238.538 390.398 238.694 390.363 238.866L364.826 374.04C364.683 374.801 364.27 375.488 363.66 375.983C363.049 376.478 362.28 376.749 361.486 376.748C360.987 376.749 360.495 376.642 360.044 376.436C359.593 376.231 359.194 375.931 358.875 375.559C358.556 375.186 358.326 374.75 358.199 374.281C358.073 373.812 358.055 373.322 358.145 372.845L385.684 227.067H396.574L424.113 372.845C424.203 373.321 424.184 373.812 424.057 374.28C423.931 374.749 423.7 375.185 423.382 375.557C423.063 375.93 422.664 376.229 422.213 376.435C421.762 376.641 421.271 376.748 420.773 376.748Z" fill="#FFF4DE"/>
<path d="M110.041 349.98H63.8375V355.408H110.041V349.98Z" fill="#F4E8CE"/>
<path d="M103.613 220.127H70.196V227.32H103.613V220.127Z" fill="#FFF4DE"/>
<path d="M116.55 376.748C115.755 376.749 114.986 376.478 114.375 375.983C113.765 375.488 113.352 374.801 113.209 374.04L87.6726 238.87C87.6377 238.697 87.5422 238.541 87.4024 238.43C87.2626 238.318 87.0872 238.257 86.9062 238.257C86.7252 238.257 86.5498 238.318 86.41 238.43C86.2702 238.541 86.1747 238.697 86.1398 238.87L60.6033 374.04C60.4607 374.801 60.0482 375.489 59.4377 375.984C58.8271 376.479 58.0574 376.749 57.2628 376.748C56.7646 376.749 56.2724 376.642 55.8212 376.436C55.37 376.231 54.9709 375.931 54.6521 375.559C54.3333 375.186 54.1026 374.75 53.9765 374.281C53.8503 373.812 53.8318 373.322 53.9222 372.845L81.4608 227.067H92.3516L119.909 372.845C119.999 373.323 119.98 373.815 119.853 374.285C119.726 374.755 119.494 375.193 119.173 375.565C118.852 375.938 118.451 376.238 117.997 376.442C117.544 376.647 117.049 376.751 116.55 376.748Z" fill="#FFF4DE"/>
<path d="M206.609 160.814H146.981C146.323 160.814 145.674 160.969 145.091 161.265C144.507 161.562 144.006 161.991 143.63 162.517C143.254 163.043 143.014 163.649 142.931 164.285C142.848 164.92 142.924 165.566 143.153 166.166L158.188 205.919H228.009L212.465 164.789C212.025 163.623 211.227 162.616 210.18 161.905C209.133 161.194 207.886 160.813 206.609 160.814Z" fill="#7B688A"/>
<path d="M205.44 162.83H147.293C146.65 162.83 146.017 162.981 145.447 163.271C144.878 163.561 144.389 163.98 144.022 164.494C143.655 165.007 143.421 165.6 143.341 166.22C143.261 166.841 143.336 167.471 143.56 168.057L158.228 206.818H226.304L211.145 166.705C210.716 165.569 209.938 164.588 208.918 163.895C207.898 163.203 206.684 162.831 205.44 162.83Z" fill="#7B688A"/>
<path d="M158.045 205.908H272.427C273.976 205.908 275.462 206.506 276.558 207.571C277.653 208.636 278.27 210.081 278.272 211.588V211.742H163.912C163.143 211.744 162.381 211.6 161.67 211.315C160.959 211.031 160.312 210.613 159.767 210.086C159.222 209.558 158.789 208.931 158.494 208.24C158.198 207.55 158.046 206.809 158.045 206.061V205.908Z" fill="#7B688A"/>
<path d="M188.261 189.463C190.397 187.155 189.755 183.205 186.828 180.641C183.901 178.076 179.796 177.868 177.661 180.176C175.525 182.484 176.167 186.434 179.094 188.998C182.021 191.563 186.126 191.771 188.261 189.463Z" fill="#FFD473"/>
<path d="M242.773 207.995H237.899V209.697H242.773V207.995Z" fill="#3A193F"/>
<path d="M252.083 207.995H247.209V209.697H252.083V207.995Z" fill="#7B688A"/>
<path d="M368.622 195.767H366.733V192.053H349.531V208.955C349.531 209.797 349.875 210.605 350.487 211.2C351.099 211.796 351.929 212.13 352.795 212.13H363.469C363.898 212.131 364.323 212.049 364.719 211.89C365.115 211.73 365.475 211.496 365.778 211.201C366.081 210.906 366.322 210.556 366.486 210.171C366.649 209.785 366.734 209.372 366.733 208.955V203.196H368.622C369.634 203.196 370.605 202.805 371.321 202.108C372.037 201.411 372.439 200.467 372.439 199.482C372.439 198.496 372.037 197.552 371.321 196.855C370.605 196.158 369.634 195.767 368.622 195.767ZM369.96 200.862C369.774 201.044 369.553 201.189 369.309 201.287C369.066 201.386 368.805 201.437 368.541 201.437H366.733V197.512H368.526C368.924 197.511 369.313 197.625 369.644 197.84C369.975 198.054 370.233 198.36 370.385 198.717C370.537 199.075 370.576 199.468 370.498 199.848C370.42 200.227 370.227 200.575 369.945 200.848L369.96 200.862Z" fill="white" stroke="#7B688A" stroke-width="3" stroke-miterlimit="10"/>
<path d="M359.443 190.476C358.537 189.573 353.796 186.551 354.856 182.201C355.916 177.852 362.63 178.794 362.424 173.938C362.252 169.816 358.537 171.465 357.727 172.967C357.727 172.967 358.218 167.529 363.323 169.345C371.94 172.414 361.933 181.12 359.076 183.532C356.447 185.734 359.443 190.476 359.443 190.476Z" fill="#FFF4DE"/>
<path d="M365.468 178.812C365.468 178.812 364.368 182.48 359.891 184.285C359.891 184.285 366.766 184.285 365.468 178.812Z" fill="#FFF4DE"/>
<path d="M415.037 212.131C415.037 212.131 427.93 143.402 363.356 133.804" stroke="#7B688A" stroke-width="3" stroke-miterlimit="10"/>
<path d="M415.291 211.749H380.913C383.315 206.336 390.102 202.436 398.1 202.436C406.098 202.436 412.896 206.336 415.291 211.749Z" fill="#7B688A"/>
<path d="M415.291 211.749H410.964C408.686 206.614 402.244 202.911 394.653 202.911C394.121 202.911 393.593 202.928 393.069 202.968C394.721 202.612 396.408 202.434 398.1 202.436C406.101 202.436 412.896 206.336 415.291 211.749Z" fill="#7B688A"/>
<path d="M363.906 134.443C363.598 135.802 362.498 136.865 360.936 137.511C359.143 138.257 356.748 138.45 354.251 137.914C351.754 137.379 349.667 136.216 348.362 134.807C347.225 133.579 346.69 132.166 346.998 130.807C347.661 127.885 351.985 126.332 356.653 127.335C361.321 128.338 364.57 131.524 363.906 134.443Z" fill="#7B688A"/>
<path d="M363.906 134.442C363.616 135.72 362.626 136.733 361.214 137.39C361.88 136.88 362.349 136.165 362.545 135.363C363.165 132.64 360.136 129.672 355.78 128.733C351.673 127.852 347.852 129.09 346.913 131.516C346.916 131.276 346.944 131.037 346.998 130.803C347.661 127.881 351.985 126.328 356.653 127.331C361.321 128.334 364.569 131.524 363.906 134.442Z" fill="#7B688A"/>
<path d="M359.99 136.833C358.202 137.45 356.272 137.567 354.42 137.169C352.567 136.771 350.867 135.874 349.513 134.582C348.912 133.293 352.48 132.847 355.267 133.447C358.053 134.046 361.141 136.159 359.99 136.833Z" fill="#7B688A"/>
<path d="M80.5477 105.377H202.781V116.27L80.5257 106.215C80.1993 106.187 80.2213 105.377 80.5477 105.377Z" fill="#FFF4DE"/>
<path d="M189.595 51.5198H184.454C183.411 51.5198 182.565 52.3425 182.565 53.3573V94.3369C182.565 95.3518 183.411 96.1745 184.454 96.1745H189.595C190.638 96.1745 191.483 95.3518 191.483 94.3369V53.3573C191.483 52.3425 190.638 51.5198 189.595 51.5198Z" fill="white" stroke="#7B688A" stroke-width="3" stroke-miterlimit="10"/>
<path d="M180.171 55.2986H174.032C173.014 55.2986 172.188 56.1021 172.188 57.0933V95.2648C172.188 96.2561 173.014 97.0596 174.032 97.0596H180.171C181.189 97.0596 182.015 96.2561 182.015 95.2648V57.0933C182.015 56.1021 181.189 55.2986 180.171 55.2986Z" fill="#7B688A"/>
<path d="M170.468 45.158H168.811C167.861 45.158 167.091 45.9072 167.091 46.8314V95.3861C167.091 96.3103 167.861 97.0595 168.811 97.0595H170.468C171.418 97.0595 172.188 96.3103 172.188 95.3861V46.8314C172.188 45.9072 171.418 45.158 170.468 45.158Z" fill="#D6EAF2"/>
<path d="M164.843 58.3206H160.428C159.387 58.3206 158.543 59.1417 158.543 60.1546V94.6937C158.543 95.7066 159.387 96.5277 160.428 96.5277H164.843C165.884 96.5277 166.728 95.7066 166.728 94.6937V60.1546C166.728 59.1417 165.884 58.3206 164.843 58.3206Z" fill="white" stroke="#7B688A" stroke-width="3" stroke-miterlimit="10"/>
<path d="M143.322 97.0525H136.175L154.048 50.4709C154.115 50.2897 154.238 50.133 154.4 50.022C154.562 49.911 154.755 49.851 154.953 49.8501H160.021C160.18 49.8514 160.336 49.89 160.476 49.9628C160.616 50.0356 160.736 50.1402 160.825 50.2679C160.914 50.3955 160.971 50.5424 160.989 50.6958C161.007 50.8492 160.987 51.0047 160.93 51.1489L143.322 97.0525Z" fill="#7B688A"/>
<path d="M202.429 97.0596H80.8153V104.867H202.429V97.0596Z" fill="white" stroke="#7B688A" stroke-width="3" stroke-miterlimit="10"/>
<path d="M93.1031 79.7471H123.799V83.0262C123.797 86.7462 122.277 90.3132 119.574 92.9433C116.87 95.5735 113.204 97.0514 109.381 97.0523H107.525C103.7 97.0523 100.032 95.5738 97.3273 92.9421C94.6226 90.3103 93.1031 86.7409 93.1031 83.019V79.7471Z" fill="#7B688A"/>
<path d="M120.722 79.747H97.9692C97.9692 79.747 91.3211 85.0278 87.5221 80.6997C84.7719 77.5633 97.9325 77.4242 97.9325 77.4242L98.3286 77.2886C98.3286 77.2886 92.6851 65.76 98.0169 63.8333C101.702 62.5024 102.597 72.2718 102.784 75.4474C104.727 74.6553 108.512 73.5171 108.834 76.5179C108.834 76.5179 109.256 64.1758 114.573 65.3568C118.992 66.3345 112.435 77.9344 112.435 77.9344L112.897 78.2091C112.897 78.2091 125.042 69.5779 128.016 71.5725C130.278 73.096 120.722 79.747 120.722 79.747Z" fill="#A1CBE2"/>
<path d="M101.464 79.7471C101.464 79.7471 101.702 69.1106 105.816 69.3996C109.931 69.6886 104.196 79.7471 104.196 79.7471H101.464Z" fill="#D6EAF2"/>
<path d="M101.464 79.7471C101.464 79.7471 97.3348 69.71 91.739 72.2791C86.2753 74.7767 98.0351 79.7471 98.0351 79.7471H101.464Z" fill="#D6EAF2"/>
<path d="M109.953 79.747C109.953 79.747 113.675 70.7019 119.542 71.5618C125.409 72.4217 112.281 79.747 112.281 79.747H109.953Z" fill="#D6EAF2"/>
<path d="M116 79.7469C116 79.7469 127.499 74.1129 129.567 77.5097C131.635 80.9066 116 79.7469 116 79.7469Z" fill="#D6EAF2"/>
<path d="M155.052 334.113C155.052 334.113 155.954 274.315 184.63 238.87C184.63 238.87 169.841 259.022 165.085 334.113H155.052Z" fill="#948900"/>
<path d="M160.919 334.113C160.919 334.113 167.359 270.148 132.93 246.217C132.93 246.217 161.132 271.218 149.024 334.113H160.919Z" fill="#948900"/>
<path d="M157.153 333.217C157.153 333.217 156.941 276.128 125.717 262.569C125.717 262.569 156.941 284.652 146.875 333.217H157.153Z" fill="#948900"/>
<path d="M151.88 334.113C151.88 334.113 144.547 270.28 168.099 247.951C168.099 247.951 155.052 273.234 160.919 334.113H151.88Z" fill="#B0A81F"/>
<path d="M159.658 334.113C159.658 334.113 159.658 284.063 189.221 274.697C189.221 274.697 165.265 300.152 168.829 334.113H159.658Z" fill="#B0A81F"/>
<path d="M145.053 334.113C145.053 334.113 149.281 307.484 127.752 295.549C127.752 295.549 152.889 300.933 151.88 334.113H145.053Z" fill="#B0A81F"/>
<path d="M170.431 333.803H143.45C140.716 333.803 138.5 335.959 138.5 338.62V364.874C138.5 367.534 140.716 369.691 143.45 369.691H170.431C173.165 369.691 175.382 367.534 175.382 364.874V338.62C175.382 335.959 173.165 333.803 170.431 333.803Z" fill="white" stroke="#7B688A" stroke-width="3" stroke-linecap="round" stroke-linejoin="round"/>
</svg>
