<svg width="57" height="39" viewBox="0 0 57 39" fill="none" xmlns="http://www.w3.org/2000/svg">
<path d="M18.04 33.52C18.6 33.52 19.0267 33.7067 19.32 34.08C19.6133 34.4533 19.76 34.92 19.76 35.48C19.76 36.1733 19.5333 36.8 19.08 37.36C18.6533 37.8933 18.0667 38.16 17.32 38.16C16.04 38.16 14.1333 38.0667 11.6 37.88C11.0933 37.8533 10.16 37.8 8.8 37.72C7.44 37.64 6.37333 37.6 5.6 37.6C5.25333 37.6 4.74667 37.72 4.08 37.96C3.94667 37.9867 3.68 38.0533 3.28 38.16C2.90667 38.2667 2.58667 38.32 2.32 38.32C1.89333 38.32 1.53333 38.1333 1.24 37.76C0.973333 37.36 0.84 36.7733 0.84 36C0.84 35.1467 1.04 34.4933 1.44 34.04C1.84 33.56 2.46667 33.1333 3.32 32.76C5.13333 31.96 6.84 30.9467 8.44 29.72C10.0667 28.4667 11.36 27.12 12.32 25.68C13.3067 24.24 13.8 22.8667 13.8 21.56C13.8 20.52 13.56 19.76 13.08 19.28C12.6267 18.7733 11.8933 18.52 10.88 18.52C9.70667 18.52 8.76 18.84 8.04 19.48C7.34667 20.12 7 21.0133 7 22.16C7 23.7333 6.21333 24.52 4.64 24.52C3.89333 24.52 3.30667 24.3067 2.88 23.88C2.48 23.4533 2.28 22.84 2.28 22.04C2.28 20.7067 2.62667 19.48 3.32 18.36C4.01333 17.24 5.05333 16.3467 6.44 15.68C7.82667 14.9867 9.52 14.64 11.52 14.64C13.92 14.64 15.8 15.24 17.16 16.44C18.52 17.64 19.2 19.3067 19.2 21.44C19.2 23.4667 18.3067 25.5867 16.52 27.8C14.76 30.0133 12.2133 31.9733 8.88 33.68L18.04 33.52ZM44.8228 29.08C45.1695 29.08 45.4361 29.24 45.6228 29.56C45.8361 29.88 45.9428 30.32 45.9428 30.88C45.9428 31.9467 45.6895 32.7733 45.1828 33.36C44.0895 34.6933 42.8895 35.84 41.5828 36.8C40.2761 37.7333 38.9828 38.2 37.7028 38.2C35.6761 38.2 34.1295 37.0133 33.0628 34.64C31.9428 36.0533 30.9561 37 30.1028 37.48C29.2761 37.96 28.3028 38.2 27.1828 38.2C25.5561 38.2 24.2095 37.6 23.1428 36.4C22.1028 35.1733 21.5828 33.5867 21.5828 31.64C21.5828 29.5067 22.0361 27.5333 22.9428 25.72C23.8495 23.88 25.0895 22.3867 26.6628 21.24C28.2628 20.0667 30.0495 19.3733 32.0228 19.16C32.5295 13.9867 33.4895 9.57333 34.9028 5.92C36.3428 2.24 38.2228 0.399998 40.5428 0.399998C41.6895 0.399998 42.6361 0.919998 43.3828 1.96C44.1561 3 44.5428 4.57333 44.5428 6.68C44.5428 9.66667 43.8095 13.16 42.3428 17.16C40.8761 21.16 38.9161 25.2667 36.4628 29.48C36.5695 31.0267 36.7961 32.1333 37.1428 32.8C37.5161 33.4667 37.9828 33.8 38.5428 33.8C39.2628 33.8 39.9961 33.48 40.7428 32.84C41.4895 32.2 42.4895 31.1333 43.7428 29.64C44.0628 29.2667 44.4228 29.08 44.8228 29.08ZM40.1028 4.32C39.5961 4.32 39.0895 5.22666 38.5828 7.04C38.0761 8.82667 37.6361 11.1733 37.2628 14.08C36.9161 16.9867 36.6628 20.0267 36.5028 23.2C39.4895 16.6933 40.9828 11.4667 40.9828 7.52C40.9828 6.50667 40.8895 5.72 40.7028 5.16C40.5428 4.6 40.3428 4.32 40.1028 4.32ZM28.5828 34.16C29.0895 34.16 29.5961 33.96 30.1028 33.56C30.6095 33.1333 31.2495 32.36 32.0228 31.24C31.7561 29.8 31.6228 28.1867 31.6228 26.4C31.6228 25.76 31.6495 24.72 31.7028 23.28C30.2361 23.7333 29.0095 24.72 28.0228 26.24C27.0628 27.7333 26.5828 29.4 26.5828 31.24C26.5828 33.1867 27.2495 34.16 28.5828 34.16ZM48.2487 38.2C46.6754 38.2 45.3287 37.8133 44.2087 37.04C43.1154 36.24 42.2887 35.2 41.7287 33.92C41.1687 32.64 40.8887 31.2667 40.8887 29.8C40.8887 27.7733 41.2621 25.9733 42.0087 24.4C42.7821 22.8 43.8221 21.56 45.1287 20.68C46.4354 19.7733 47.9021 19.32 49.5287 19.32C51.1021 19.32 52.4487 19.72 53.5687 20.52C54.6887 21.2933 55.5287 22.32 56.0887 23.6C56.6487 24.88 56.9287 26.2533 56.9287 27.72C56.9287 29.7467 56.5421 31.56 55.7687 33.16C54.9954 34.7333 53.9421 35.9733 52.6087 36.88C51.3021 37.76 49.8487 38.2 48.2487 38.2ZM48.6887 33.88C49.5954 33.88 50.3554 33.3867 50.9687 32.4C51.6087 31.4133 51.9287 29.9733 51.9287 28.08C51.9287 26.6133 51.6621 25.5067 51.1287 24.76C50.5954 24.0133 49.9554 23.64 49.2087 23.64C48.2487 23.64 47.4487 24.1333 46.8087 25.12C46.1954 26.08 45.8887 27.52 45.8887 29.44C45.8887 30.96 46.1554 32.08 46.6887 32.8C47.2221 33.52 47.8887 33.88 48.6887 33.88Z" fill="#7134EB"/>
</svg>
